  0
SECTION
  2
HEADER
  9
$ACADVER
  1
AC1009
  9
$FILLMODE
 70
1
  9
$EXTMIN
 10
0.0000
 20
0.0000
 30
0.0000
  9
$EXTMAX
 10
100.0000
 20
80.0000
 30
0.0000
  0
ENDSEC
  0
SECTION
  2
TABLES
  0
TABLE
  2
LTYPE
 70
1
  0
LTYPE
  2
CONTINUOUS
 70
64
  3
Solid line
 72
65
 73
0
 40
0
  0
ENDTAB
  0
TABLE
  2
LAYER
 70
255
  0
LAYER
  2
17
 70
64
 62
82
  6
CONTINUOUS
  0
LAYER
  2
20
 70
64
 62
7
  6
CONTINUOUS
  0
LAYER
  2
31
 70
64
 62
253
  6
CONTINUOUS
  0
LAYER
  2
46
 70
64
 62
140
  6
CONTINUOUS
  0
ENDTAB
  0
ENDSEC
  0
SECTION
  2
BLOCKS
  0
BLOCK
  8
0
  2
RECT
 70
64
 10
0.0000
 20
0.0000
 30
0.0000
  3
RECT
  0
SOLID
  8
0
 10
-0.5000
 20
-0.5000
 30
0.0000
 11
0.5000
 21
-0.5000
 31
0.0000
 12
-0.5000
 22
0.5000
 32
0.0000
 13
0.5000
 23
0.5000
 33
0.0000
  0
ENDBLK
  8
0
  0
BLOCK
  8
0
  2
PIE
 70
64
 10
0.0000
 20
0.0000
 30
0.0000
  3
PIE
  0
POLYLINE
  8
0
 66
1
 10
0.0000
 20
0.0000
 30
0.0000
 40
0.5000
 41
0.5000
 70
0
  0
VERTEX
  8
0
 10
0.0000
 20
-0.2500
 30
0.0000
 42
1.0000
  0
VERTEX
  8
0
 10
0.0000
 20
0.2500
 30
0.0000
 42
1.0000
  0
VERTEX
  8
0
 10
0.0000
 20
-0.2500
 30
0.0000
  0
SEQEND
  8
0
  0
ENDBLK
  8
0
  0
BLOCK
  8
0
  2
OCTAGONP
 70
64
 10
0.0000
 20
0.0000
 30
0.0000
  3
OCTAGONP
  0
POLYLINE
  8
0
 66
1
 10
0.0000
 20
0.0000
 30
0.0000
 40
0.5000
 41
0.5000
 70
0
  0
VERTEX
  8
0
 10
-0.2500
 20
-0.1036
 30
0.0000
  0
VERTEX
  8
0
 10
-0.2500
 20
0.1036
 30
0.0000
  0
VERTEX
  8
0
 10
-0.1036
 20
0.2500
 30
0.0000
  0
VERTEX
  8
0
 10
0.1036
 20
0.2500
 30
0.0000
  0
VERTEX
  8
0
 10
0.2500
 20
0.1036
 30
0.0000
  0
VERTEX
  8
0
 10
0.2500
 20
-0.1036
 30
0.0000
  0
VERTEX
  8
0
 10
0.1036
 20
-0.2500
 30
0.0000
  0
VERTEX
  8
0
 10
-0.1036
 20
-0.2500
 30
0.0000
  0
VERTEX
  8
0
 10
-0.2500
 20
-0.1036
 30
0.0000
  0
VERTEX
  8
0
 10
-0.2500
 20
0.1036
 30
0.0000
  0
SEQEND
  8
0
  0
ENDBLK
  8
0
  0
BLOCK
  8
0
  2
SQUAREP
 70
64
 10
0.0000
 20
0.0000
 30
0.0000
  3
SQUAREP
  0
SOLID
  8
0
 10
-0.5000
 20
-0.5000
 30
0.0000
 11
0.5000
 21
-0.5000
 31
0.0000
 12
-0.5000
 22
0.5000
 32
0.0000
 13
0.5000
 23
0.5000
 33
0.0000
  0
ENDBLK
  8
0
  0
BLOCK
  8
0
  2
ROUNDP
 70
64
 10
0.0000
 20
0.0000
 30
0.0000
  3
ROUNDP
  0
POLYLINE
  8
0
 66
1
 10
0.0000
 20
0.0000
 30
0.0000
 40
0.5000
 41
0.5000
 70
0
  0
VERTEX
  8
0
 10
0.0000
 20
-0.2500
 30
0.0000
 42
1.0000
  0
VERTEX
  8
0
 10
0.0000
 20
0.2500
 30
0.0000
 42
1.0000
  0
VERTEX
  8
0
 10
0.0000
 20
-0.2500
 30
0.0000
  0
SEQEND
  8
0
  0
ENDBLK
  8
0
  0
BLOCK
  8
0
  2
ANNULUSP
 70
64
 10
0.0000
 20
0.0000
 30
0.0000
  3
ANNULUSP
  0
POLYLINE
  8
0
 66
1
 10
0.0000
 20
0.0000
 30
0.0000
 40
0.5000
 41
0.5000
 70
0
  0
VERTEX
  8
0
 10
0.0000
 20
-0.2500
 30
0.0000
 42
1.0000
  0
VERTEX
  8
0
 10
0.0000
 20
0.2500
 30
0.0000
 42
1.0000
  0
VERTEX
  8
0
 10
0.0000
 20
-0.2500
 30
0.0000
  0
SEQEND
  8
0
  0
ENDBLK
  8
0
  0
BLOCK
  8
0
  2
THERMALP
 70
64
 10
0.0000
 20
0.0000
 30
0.0000
  3
THERMALP
  0
POLYLINE
  8
0
 66
1
 10
0.0000
 20
0.0000
 30
0.0000
 40
0.1000
 41
0.1000
 70
0
  0
VERTEX
  8
0
 10
-0.2379
 20
0.4500
 30
0.0000
  0
VERTEX
  8
0
 10
0.2379
 20
0.4500
 30
0.0000
  0
SEQEND
  8
0
  0
POLYLINE
  8
0
 66
1
 10
0.0000
 20
0.0000
 30
0.0000
 40
0.0500
 41
0.0500
 70
0
  0
VERTEX
  8
0
 10
0.2379
 20
0.4250
 30
0.0000
 42
1.0000
  0
VERTEX
  8
0
 10
0.2379
 20
0.4750
 30
0.0000
  0
SEQEND
  8
0
  0
POLYLINE
  8
0
 66
1
 10
0.0000
 20
0.0000
 30
0.0000
 40
0.0500
 41
0.0500
 70
0
  0
VERTEX
  8
0
 10
-0.2379
 20
0.4750
 30
0.0000
 42
1.0000
  0
VERTEX
  8
0
 10
-0.2379
 20
0.4250
 30
0.0000
  0
SEQEND
  8
0
  0
POLYLINE
  8
0
 66
1
 10
0.0000
 20
0.0000
 30
0.0000
 40
0.1000
 41
0.1000
 70
0
  0
VERTEX
  8
0
 10
0.4500
 20
0.2379
 30
0.0000
  0
VERTEX
  8
0
 10
0.4500
 20
-0.2379
 30
0.0000
  0
SEQEND
  8
0
  0
POLYLINE
  8
0
 66
1
 10
0.0000
 20
0.0000
 30
0.0000
 40
0.0500
 41
0.0500
 70
0
  0
VERTEX
  8
0
 10
0.4250
 20
-0.2379
 30
0.0000
 42
1.0000
  0
VERTEX
  8
0
 10
0.4750
 20
-0.2379
 30
0.0000
  0
SEQEND
  8
0
  0
POLYLINE
  8
0
 66
1
 10
0.0000
 20
0.0000
 30
0.0000
 40
0.0500
 41
0.0500
 70
0
  0
VERTEX
  8
0
 10
0.4750
 20
0.2379
 30
0.0000
 42
1.0000
  0
VERTEX
  8
0
 10
0.4250
 20
0.2379
 30
0.0000
  0
SEQEND
  8
0
  0
POLYLINE
  8
0
 66
1
 10
0.0000
 20
0.0000
 30
0.0000
 40
0.1000
 41
0.1000
 70
0
  0
VERTEX
  8
0
 10
0.2379
 20
-0.4500
 30
0.0000
  0
VERTEX
  8
0
 10
-0.2379
 20
-0.4500
 30
0.0000
  0
SEQEND
  8
0
  0
POLYLINE
  8
0
 66
1
 10
0.0000
 20
0.0000
 30
0.0000
 40
0.0500
 41
0.0500
 70
0
  0
VERTEX
  8
0
 10
-0.2379
 20
-0.4250
 30
0.0000
 42
1.0000
  0
VERTEX
  8
0
 10
-0.2379
 20
-0.4750
 30
0.0000
  0
SEQEND
  8
0
  0
POLYLINE
  8
0
 66
1
 10
0.0000
 20
0.0000
 30
0.0000
 40
0.0500
 41
0.0500
 70
0
  0
VERTEX
  8
0
 10
0.2379
 20
-0.4750
 30
0.0000
 42
1.0000
  0
VERTEX
  8
0
 10
0.2379
 20
-0.4250
 30
0.0000
  0
SEQEND
  8
0
  0
POLYLINE
  8
0
 66
1
 10
0.0000
 20
0.0000
 30
0.0000
 40
0.1000
 41
0.1000
 70
0
  0
VERTEX
  8
0
 10
-0.4500
 20
-0.2379
 30
0.0000
  0
VERTEX
  8
0
 10
-0.4500
 20
0.2379
 30
0.0000
  0
SEQEND
  8
0
  0
POLYLINE
  8
0
 66
1
 10
0.0000
 20
0.0000
 30
0.0000
 40
0.0500
 41
0.0500
 70
0
  0
VERTEX
  8
0
 10
-0.4250
 20
0.2379
 30
0.0000
 42
1.0000
  0
VERTEX
  8
0
 10
-0.4750
 20
0.2379
 30
0.0000
  0
SEQEND
  8
0
  0
POLYLINE
  8
0
 66
1
 10
0.0000
 20
0.0000
 30
0.0000
 40
0.0500
 41
0.0500
 70
0
  0
VERTEX
  8
0
 10
-0.4750
 20
-0.2379
 30
0.0000
 42
1.0000
  0
VERTEX
  8
0
 10
-0.4250
 20
-0.2379
 30
0.0000
  0
SEQEND
  8
0
  0
ENDBLK
  8
0
  0
BLOCK
  8
0
  2
OCTAGONV
 70
64
 10
0.0000
 20
0.0000
 30
0.0000
  3
OCTAGONV
  0
POLYLINE
  8
0
 66
1
 10
0.0000
 20
0.0000
 30
0.0000
 40
0.5000
 41
0.5000
 70
0
  0
VERTEX
  8
0
 10
-0.2500
 20
-0.1036
 30
0.0000
  0
VERTEX
  8
0
 10
-0.2500
 20
0.1036
 30
0.0000
  0
VERTEX
  8
0
 10
-0.1036
 20
0.2500
 30
0.0000
  0
VERTEX
  8
0
 10
0.1036
 20
0.2500
 30
0.0000
  0
VERTEX
  8
0
 10
0.2500
 20
0.1036
 30
0.0000
  0
VERTEX
  8
0
 10
0.2500
 20
-0.1036
 30
0.0000
  0
VERTEX
  8
0
 10
0.1036
 20
-0.2500
 30
0.0000
  0
VERTEX
  8
0
 10
-0.1036
 20
-0.2500
 30
0.0000
  0
VERTEX
  8
0
 10
-0.2500
 20
-0.1036
 30
0.0000
  0
VERTEX
  8
0
 10
-0.2500
 20
0.1036
 30
0.0000
  0
SEQEND
  8
0
  0
ENDBLK
  8
0
  0
BLOCK
  8
0
  2
SQUAREV
 70
64
 10
0.0000
 20
0.0000
 30
0.0000
  3
SQUAREV
  0
SOLID
  8
0
 10
-0.5000
 20
-0.5000
 30
0.0000
 11
0.5000
 21
-0.5000
 31
0.0000
 12
-0.5000
 22
0.5000
 32
0.0000
 13
0.5000
 23
0.5000
 33
0.0000
  0
ENDBLK
  8
0
  0
BLOCK
  8
0
  2
ROUNDV
 70
64
 10
0.0000
 20
0.0000
 30
0.0000
  3
ROUNDV
  0
POLYLINE
  8
0
 66
1
 10
0.0000
 20
0.0000
 30
0.0000
 40
0.5000
 41
0.5000
 70
0
  0
VERTEX
  8
0
 10
0.0000
 20
-0.2500
 30
0.0000
 42
1.0000
  0
VERTEX
  8
0
 10
0.0000
 20
0.2500
 30
0.0000
 42
1.0000
  0
VERTEX
  8
0
 10
0.0000
 20
-0.2500
 30
0.0000
  0
SEQEND
  8
0
  0
ENDBLK
  8
0
  0
BLOCK
  8
0
  2
ANNULUSV
 70
64
 10
0.0000
 20
0.0000
 30
0.0000
  3
ANNULUSV
  0
POLYLINE
  8
0
 66
1
 10
0.0000
 20
0.0000
 30
0.0000
 40
0.5000
 41
0.5000
 70
0
  0
VERTEX
  8
0
 10
0.0000
 20
-0.2500
 30
0.0000
 42
1.0000
  0
VERTEX
  8
0
 10
0.0000
 20
0.2500
 30
0.0000
 42
1.0000
  0
VERTEX
  8
0
 10
0.0000
 20
-0.2500
 30
0.0000
  0
SEQEND
  8
0
  0
ENDBLK
  8
0
  0
BLOCK
  8
0
  2
THERMALV
 70
64
 10
0.0000
 20
0.0000
 30
0.0000
  3
THERMALV
  0
POLYLINE
  8
0
 66
1
 10
0.0000
 20
0.0000
 30
0.0000
 40
0.1000
 41
0.1000
 70
0
  0
VERTEX
  8
0
 10
-0.2379
 20
0.4500
 30
0.0000
  0
VERTEX
  8
0
 10
0.2379
 20
0.4500
 30
0.0000
  0
SEQEND
  8
0
  0
POLYLINE
  8
0
 66
1
 10
0.0000
 20
0.0000
 30
0.0000
 40
0.0500
 41
0.0500
 70
0
  0
VERTEX
  8
0
 10
0.2379
 20
0.4250
 30
0.0000
 42
1.0000
  0
VERTEX
  8
0
 10
0.2379
 20
0.4750
 30
0.0000
  0
SEQEND
  8
0
  0
POLYLINE
  8
0
 66
1
 10
0.0000
 20
0.0000
 30
0.0000
 40
0.0500
 41
0.0500
 70
0
  0
VERTEX
  8
0
 10
-0.2379
 20
0.4750
 30
0.0000
 42
1.0000
  0
VERTEX
  8
0
 10
-0.2379
 20
0.4250
 30
0.0000
  0
SEQEND
  8
0
  0
POLYLINE
  8
0
 66
1
 10
0.0000
 20
0.0000
 30
0.0000
 40
0.1000
 41
0.1000
 70
0
  0
VERTEX
  8
0
 10
0.4500
 20
0.2379
 30
0.0000
  0
VERTEX
  8
0
 10
0.4500
 20
-0.2379
 30
0.0000
  0
SEQEND
  8
0
  0
POLYLINE
  8
0
 66
1
 10
0.0000
 20
0.0000
 30
0.0000
 40
0.0500
 41
0.0500
 70
0
  0
VERTEX
  8
0
 10
0.4250
 20
-0.2379
 30
0.0000
 42
1.0000
  0
VERTEX
  8
0
 10
0.4750
 20
-0.2379
 30
0.0000
  0
SEQEND
  8
0
  0
POLYLINE
  8
0
 66
1
 10
0.0000
 20
0.0000
 30
0.0000
 40
0.0500
 41
0.0500
 70
0
  0
VERTEX
  8
0
 10
0.4750
 20
0.2379
 30
0.0000
 42
1.0000
  0
VERTEX
  8
0
 10
0.4250
 20
0.2379
 30
0.0000
  0
SEQEND
  8
0
  0
POLYLINE
  8
0
 66
1
 10
0.0000
 20
0.0000
 30
0.0000
 40
0.1000
 41
0.1000
 70
0
  0
VERTEX
  8
0
 10
0.2379
 20
-0.4500
 30
0.0000
  0
VERTEX
  8
0
 10
-0.2379
 20
-0.4500
 30
0.0000
  0
SEQEND
  8
0
  0
POLYLINE
  8
0
 66
1
 10
0.0000
 20
0.0000
 30
0.0000
 40
0.0500
 41
0.0500
 70
0
  0
VERTEX
  8
0
 10
-0.2379
 20
-0.4250
 30
0.0000
 42
1.0000
  0
VERTEX
  8
0
 10
-0.2379
 20
-0.4750
 30
0.0000
  0
SEQEND
  8
0
  0
POLYLINE
  8
0
 66
1
 10
0.0000
 20
0.0000
 30
0.0000
 40
0.0500
 41
0.0500
 70
0
  0
VERTEX
  8
0
 10
0.2379
 20
-0.4750
 30
0.0000
 42
1.0000
  0
VERTEX
  8
0
 10
0.2379
 20
-0.4250
 30
0.0000
  0
SEQEND
  8
0
  0
POLYLINE
  8
0
 66
1
 10
0.0000
 20
0.0000
 30
0.0000
 40
0.1000
 41
0.1000
 70
0
  0
VERTEX
  8
0
 10
-0.4500
 20
-0.2379
 30
0.0000
  0
VERTEX
  8
0
 10
-0.4500
 20
0.2379
 30
0.0000
  0
SEQEND
  8
0
  0
POLYLINE
  8
0
 66
1
 10
0.0000
 20
0.0000
 30
0.0000
 40
0.0500
 41
0.0500
 70
0
  0
VERTEX
  8
0
 10
-0.4250
 20
0.2379
 30
0.0000
 42
1.0000
  0
VERTEX
  8
0
 10
-0.4750
 20
0.2379
 30
0.0000
  0
SEQEND
  8
0
  0
POLYLINE
  8
0
 66
1
 10
0.0000
 20
0.0000
 30
0.0000
 40
0.0500
 41
0.0500
 70
0
  0
VERTEX
  8
0
 10
-0.4750
 20
-0.2379
 30
0.0000
 42
1.0000
  0
VERTEX
  8
0
 10
-0.4250
 20
-0.2379
 30
0.0000
  0
SEQEND
  8
0
  0
ENDBLK
  8
0
  0
ENDSEC
  0
SECTION
  2
ENTITIES
  0
LINE
  8
20
 10
0.0000
 20
0.0000
 30
0.0000
 11
100.0000
 21
0.0000
 31
0.0000
  0
LINE
  8
20
 10
100.0000
 20
0.0000
 30
0.0000
 11
100.0000
 21
80.0000
 31
0.0000
  0
LINE
  8
20
 10
100.0000
 20
80.0000
 30
0.0000
 11
0.0000
 21
80.0000
 31
0.0000
  0
LINE
  8
20
 10
0.0000
 20
80.0000
 30
0.0000
 11
0.0000
 21
0.0000
 31
0.0000
  0
POLYLINE
  8
46
 66
1
 10
0.0000
 20
0.0000
 30
0.0000
 40
0.4064
 41
0.4064
 70
0
  0
VERTEX
  8
46
 10
54.8000
 20
56.0000
 30
0.0000
 42
1.0000
  0
VERTEX
  8
46
 10
46.0000
 20
56.2000
 30
0.0000
  0
SEQEND
  8
0
  0
POLYLINE
  8
46
 66
1
 10
0.0000
 20
0.0000
 30
0.0000
 40
0.2032
 41
0.2032
 70
0
  0
VERTEX
  8
46
 10
54.6984
 20
56.0023
 30
0.0000
 42
1.0000
  0
VERTEX
  8
46
 10
54.9016
 20
55.9977
 30
0.0000
  0
SEQEND
  8
0
  0
POLYLINE
  8
46
 66
1
 10
0.0000
 20
0.0000
 30
0.0000
 40
0.2032
 41
0.2032
 70
0
  0
VERTEX
  8
46
 10
45.8984
 20
56.2023
 30
0.0000
 42
1.0000
  0
VERTEX
  8
46
 10
46.1016
 20
56.1977
 30
0.0000
  0
SEQEND
  8
0
  0
POLYLINE
  8
46
 66
1
 10
0.0000
 20
0.0000
 30
0.0000
 40
0.4064
 41
0.4064
 70
0
  0
VERTEX
  8
46
 10
54.8000
 20
56.0000
 30
0.0000
 42
0.0950
  0
VERTEX
  8
46
 10
65.3000
 20
45.6000
 30
0.0000
  0
SEQEND
  8
0
  0
POLYLINE
  8
46
 66
1
 10
0.0000
 20
0.0000
 30
0.0000
 40
0.2032
 41
0.2032
 70
0
  0
VERTEX
  8
46
 10
54.8838
 20
56.0574
 30
0.0000
 42
1.0000
  0
VERTEX
  8
46
 10
54.7162
 20
55.9426
 30
0.0000
  0
SEQEND
  8
0
  0
POLYLINE
  8
46
 66
1
 10
0.0000
 20
0.0000
 30
0.0000
 40
0.2032
 41
0.2032
 70
0
  0
VERTEX
  8
46
 10
65.2434
 20
45.5156
 30
0.0000
 42
1.0000
  0
VERTEX
  8
46
 10
65.3566
 20
45.6844
 30
0.0000
  0
SEQEND
  8
0
  0
POLYLINE
  8
46
 66
1
 10
0.0000
 20
0.0000
 30
0.0000
 40
0.4064
 41
0.4064
 70
0
  0
VERTEX
  8
46
 10
65.2000
 20
36.8000
 30
0.0000
 42
1.0000
  0
VERTEX
  8
46
 10
65.4000
 20
45.6000
 30
0.0000
  0
SEQEND
  8
0
  0
POLYLINE
  8
46
 66
1
 10
0.0000
 20
0.0000
 30
0.0000
 40
0.2032
 41
0.2032
 70
0
  0
VERTEX
  8
46
 10
65.2023
 20
36.9016
 30
0.0000
 42
1.0000
  0
VERTEX
  8
46
 10
65.1977
 20
36.6984
 30
0.0000
  0
SEQEND
  8
0
  0
POLYLINE
  8
46
 66
1
 10
0.0000
 20
0.0000
 30
0.0000
 40
0.2032
 41
0.2032
 70
0
  0
VERTEX
  8
46
 10
65.4023
 20
45.7016
 30
0.0000
 42
1.0000
  0
VERTEX
  8
46
 10
65.3977
 20
45.4984
 30
0.0000
  0
SEQEND
  8
0
  0
POLYLINE
  8
46
 66
1
 10
0.0000
 20
0.0000
 30
0.0000
 40
0.4064
 41
0.4064
 70
0
  0
VERTEX
  8
46
 10
65.2000
 20
36.8000
 30
0.0000
 42
0.1005
  0
VERTEX
  8
46
 10
54.9000
 20
27.0000
 30
0.0000
  0
SEQEND
  8
0
  0
POLYLINE
  8
46
 66
1
 10
0.0000
 20
0.0000
 30
0.0000
 40
0.2032
 41
0.2032
 70
0
  0
VERTEX
  8
46
 10
65.2540
 20
36.7139
 30
0.0000
 42
1.0000
  0
VERTEX
  8
46
 10
65.1460
 20
36.8861
 30
0.0000
  0
SEQEND
  8
0
  0
POLYLINE
  8
46
 66
1
 10
0.0000
 20
0.0000
 30
0.0000
 40
0.2032
 41
0.2032
 70
0
  0
VERTEX
  8
46
 10
54.8167
 20
27.0582
 30
0.0000
 42
1.0000
  0
VERTEX
  8
46
 10
54.9833
 20
26.9418
 30
0.0000
  0
SEQEND
  8
0
  0
POLYLINE
  8
46
 66
1
 10
0.0000
 20
0.0000
 30
0.0000
 40
0.4064
 41
0.4064
 70
0
  0
VERTEX
  8
46
 10
45.7000
 20
27.4000
 30
0.0000
 42
1.0000
  0
VERTEX
  8
46
 10
54.9000
 20
27.0000
 30
0.0000
  0
SEQEND
  8
0
  0
POLYLINE
  8
46
 66
1
 10
0.0000
 20
0.0000
 30
0.0000
 40
0.2032
 41
0.2032
 70
0
  0
VERTEX
  8
46
 10
45.8015
 20
27.3956
 30
0.0000
 42
1.0000
  0
VERTEX
  8
46
 10
45.5985
 20
27.4044
 30
0.0000
  0
SEQEND
  8
0
  0
POLYLINE
  8
46
 66
1
 10
0.0000
 20
0.0000
 30
0.0000
 40
0.2032
 41
0.2032
 70
0
  0
VERTEX
  8
46
 10
55.0015
 20
26.9956
 30
0.0000
 42
1.0000
  0
VERTEX
  8
46
 10
54.7985
 20
27.0044
 30
0.0000
  0
SEQEND
  8
0
  0
POLYLINE
  8
46
 66
1
 10
0.0000
 20
0.0000
 30
0.0000
 40
0.4064
 41
0.4064
 70
0
  0
VERTEX
  8
46
 10
45.7000
 20
27.3000
 30
0.0000
 42
0.0728
  0
VERTEX
  8
46
 10
36.4000
 20
36.6000
 30
0.0000
  0
SEQEND
  8
0
  0
POLYLINE
  8
46
 66
1
 10
0.0000
 20
0.0000
 30
0.0000
 40
0.2032
 41
0.2032
 70
0
  0
VERTEX
  8
46
 10
45.6185
 20
27.2393
 30
0.0000
 42
1.0000
  0
VERTEX
  8
46
 10
45.7815
 20
27.3607
 30
0.0000
  0
SEQEND
  8
0
  0
POLYLINE
  8
46
 66
1
 10
0.0000
 20
0.0000
 30
0.0000
 40
0.2032
 41
0.2032
 70
0
  0
VERTEX
  8
46
 10
36.4607
 20
36.6815
 30
0.0000
 42
1.0000
  0
VERTEX
  8
46
 10
36.3393
 20
36.5185
 30
0.0000
  0
SEQEND
  8
0
  0
POLYLINE
  8
46
 66
1
 10
0.0000
 20
0.0000
 30
0.0000
 40
0.4064
 41
0.4064
 70
0
  0
VERTEX
  8
46
 10
35.5000
 20
45.9000
 30
0.0000
 42
1.0000
  0
VERTEX
  8
46
 10
36.4000
 20
36.6000
 30
0.0000
  0
SEQEND
  8
0
  0
POLYLINE
  8
46
 66
1
 10
0.0000
 20
0.0000
 30
0.0000
 40
0.2032
 41
0.2032
 70
0
  0
VERTEX
  8
46
 10
35.5098
 20
45.7989
 30
0.0000
 42
1.0000
  0
VERTEX
  8
46
 10
35.4902
 20
46.0011
 30
0.0000
  0
SEQEND
  8
0
  0
POLYLINE
  8
46
 66
1
 10
0.0000
 20
0.0000
 30
0.0000
 40
0.2032
 41
0.2032
 70
0
  0
VERTEX
  8
46
 10
36.4098
 20
36.4989
 30
0.0000
 42
1.0000
  0
VERTEX
  8
46
 10
36.3902
 20
36.7011
 30
0.0000
  0
SEQEND
  8
0
  0
POLYLINE
  8
46
 66
1
 10
0.0000
 20
0.0000
 30
0.0000
 40
0.4064
 41
0.4064
 70
0
  0
VERTEX
  8
46
 10
35.5000
 20
45.9000
 30
0.0000
 42
0.0636
  0
VERTEX
  8
46
 10
46.0000
 20
56.1000
 30
0.0000
  0
SEQEND
  8
0
  0
POLYLINE
  8
46
 66
1
 10
0.0000
 20
0.0000
 30
0.0000
 40
0.2032
 41
0.2032
 70
0
  0
VERTEX
  8
46
 10
35.4390
 20
45.9813
 30
0.0000
 42
1.0000
  0
VERTEX
  8
46
 10
35.5610
 20
45.8187
 30
0.0000
  0
SEQEND
  8
0
  0
POLYLINE
  8
46
 66
1
 10
0.0000
 20
0.0000
 30
0.0000
 40
0.2032
 41
0.2032
 70
0
  0
VERTEX
  8
46
 10
46.0795
 20
56.0367
 30
0.0000
 42
1.0000
  0
VERTEX
  8
46
 10
45.9205
 20
56.1633
 30
0.0000
  0
SEQEND
  8
0
  0
INSERT
  8
31
  2
RECT
 10
43.6160
 20
42.7150
 30
0.0000
 41
0.5000
 42
1.4000
 43
1.0000
 50
270.0000
  0
INSERT
  8
31
  2
RECT
 10
43.6160
 20
41.4550
 30
0.0000
 41
0.5000
 42
1.4000
 43
1.0000
 50
270.0000
  0
INSERT
  8
31
  2
RECT
 10
43.6160
 20
40.1850
 30
0.0000
 41
0.5000
 42
1.4000
 43
1.0000
 50
270.0000
  0
INSERT
  8
31
  2
RECT
 10
43.6160
 20
38.9150
 30
0.0000
 41
0.5000
 42
1.4000
 43
1.0000
 50
270.0000
  0
INSERT
  8
31
  2
RECT
 10
50.4240
 20
38.9050
 30
0.0000
 41
0.5000
 42
1.4000
 43
1.0000
 50
270.0000
  0
INSERT
  8
31
  2
RECT
 10
50.4240
 20
40.1750
 30
0.0000
 41
0.5000
 42
1.4000
 43
1.0000
 50
270.0000
  0
INSERT
  8
31
  2
RECT
 10
50.4240
 20
41.4450
 30
0.0000
 41
0.5000
 42
1.4000
 43
1.0000
 50
270.0000
  0
INSERT
  8
31
  2
RECT
 10
50.4240
 20
42.7150
 30
0.0000
 41
0.5000
 42
1.4000
 43
1.0000
 50
270.0000
  0
CIRCLE
  8
20
 10
61.6000
 20
36.0950
 30
0.0000
 40
0.7000
  0
CIRCLE
  8
20
 10
61.6000
 20
46.2550
 30
0.0000
 40
0.7000
  0
INSERT
  8
31
  2
RECT
 10
56.6000
 20
34.8250
 30
0.0000
 41
3.0000
 42
1.0000
 43
1.0000
 50
180.0000
  0
INSERT
  8
31
  2
RECT
 10
56.6000
 20
37.3650
 30
0.0000
 41
3.0000
 42
1.0000
 43
1.0000
 50
180.0000
  0
INSERT
  8
31
  2
RECT
 10
56.6000
 20
39.9050
 30
0.0000
 41
3.0000
 42
1.0000
 43
1.0000
 50
180.0000
  0
INSERT
  8
31
  2
RECT
 10
56.6000
 20
42.4450
 30
0.0000
 41
3.0000
 42
1.0000
 43
1.0000
 50
180.0000
  0
INSERT
  8
31
  2
RECT
 10
56.6000
 20
44.9850
 30
0.0000
 41
3.0000
 42
1.0000
 43
1.0000
 50
180.0000
  0
INSERT
  8
31
  2
RECT
 10
56.6000
 20
47.5250
 30
0.0000
 41
3.0000
 42
1.0000
 43
1.0000
 50
180.0000
  0
CIRCLE
  8
20
 10
53.6400
 20
46.4900
 30
0.0000
 40
0.7366
  0
CIRCLE
  8
20
 10
53.6400
 20
43.9500
 30
0.0000
 40
0.7366
  0
INSERT
  8
17
  2
ROUNDP
 10
53.6400
 20
46.4900
 30
0.0000
 41
1.3970
 42
1.3970
 43
1.0000
 50
0.0000
  0
INSERT
  8
17
  2
ROUNDP
 10
53.6400
 20
46.4900
 30
0.0000
 41
1.3970
 42
1.3970
 43
1.0000
 50
0.0000
  0
INSERT
  8
17
  2
ROUNDP
 10
53.6400
 20
43.9500
 30
0.0000
 41
1.3970
 42
1.3970
 43
1.0000
 50
0.0000
  0
INSERT
  8
17
  2
ROUNDP
 10
53.6400
 20
43.9500
 30
0.0000
 41
1.3970
 42
1.3970
 43
1.0000
 50
0.0000
  0
INSERT
  8
31
  2
RECT
 10
53.1000
 20
39.2500
 30
0.0000
 41
1.3000
 42
1.5000
 43
1.0000
 50
90.0000
  0
INSERT
  8
31
  2
RECT
 10
53.1000
 20
40.9500
 30
0.0000
 41
1.3000
 42
1.5000
 43
1.0000
 50
90.0000
  0
INSERT
  8
31
  2
RECT
 10
51.1500
 20
35.3000
 30
0.0000
 41
1.3000
 42
1.5000
 43
1.0000
 50
180.0000
  0
INSERT
  8
31
  2
RECT
 10
49.4500
 20
35.3000
 30
0.0000
 41
1.3000
 42
1.5000
 43
1.0000
 50
180.0000
  0
INSERT
  8
17
  2
ROUNDP
 10
50.3000
 20
27.2000
 30
0.0000
 41
7.0000
 42
7.0000
 43
1.0000
 50
0.0000
  0
INSERT
  8
17
  2
ROUNDP
 10
50.3000
 20
27.2000
 30
0.0000
 41
7.0000
 42
7.0000
 43
1.0000
 50
0.0000
  0
INSERT
  8
17
  2
ROUNDP
 10
50.4000
 20
56.1000
 30
0.0000
 41
7.0000
 42
7.0000
 43
1.0000
 50
0.0000
  0
INSERT
  8
17
  2
ROUNDP
 10
50.4000
 20
56.1000
 30
0.0000
 41
7.0000
 42
7.0000
 43
1.0000
 50
0.0000
  0
INSERT
  8
17
  2
ROUNDP
 10
36.1000
 20
41.3000
 30
0.0000
 41
7.0000
 42
7.0000
 43
1.0000
 50
0.0000
  0
INSERT
  8
17
  2
ROUNDP
 10
36.1000
 20
41.3000
 30
0.0000
 41
7.0000
 42
7.0000
 43
1.0000
 50
0.0000
  0
CIRCLE
  8
20
 10
50.3000
 20
47.6000
 30
0.0000
 40
0.4250
  0
CIRCLE
  8
20
 10
47.3000
 20
47.6000
 30
0.0000
 40
0.4250
  0
INSERT
  8
31
  2
RECT
 10
46.3000
 20
50.4250
 30
0.0000
 41
1.0000
 42
1.1500
 43
1.0000
 50
0.0000
  0
INSERT
  8
31
  2
RECT
 10
48.8000
 20
50.4250
 30
0.0000
 41
1.0000
 42
1.1500
 43
1.0000
 50
0.0000
  0
INSERT
  8
31
  2
RECT
 10
51.3000
 20
50.4250
 30
0.0000
 41
1.0000
 42
1.1500
 43
1.0000
 50
0.0000
  0
INSERT
  8
31
  2
RECT
 10
46.3000
 20
44.7750
 30
0.0000
 41
1.0000
 42
1.1500
 43
1.0000
 50
0.0000
  0
INSERT
  8
31
  2
RECT
 10
48.8000
 20
44.7750
 30
0.0000
 41
1.0000
 42
1.1500
 43
1.0000
 50
0.0000
  0
INSERT
  8
31
  2
RECT
 10
51.3000
 20
44.7750
 30
0.0000
 41
1.0000
 42
1.1500
 43
1.0000
 50
0.0000
  0
INSERT
  8
17
  2
ROUNDP
 10
65.0000
 20
41.3000
 30
0.0000
 41
7.0000
 42
7.0000
 43
1.0000
 50
0.0000
  0
INSERT
  8
17
  2
ROUNDP
 10
65.0000
 20
41.3000
 30
0.0000
 41
7.0000
 42
7.0000
 43
1.0000
 50
0.0000
  0
ENDSEC
  0
EOF
