  0
SECTION
  2
HEADER
  9
$ACADVER
  1
AC1009
  9
$FILLMODE
 70
1
  9
$EXTMIN
 10
0.0000
 20
0.0000
 30
0.0000
  9
$EXTMAX
 10
100.0000
 20
80.0000
 30
0.0000
  0
ENDSEC
  0
SECTION
  2
TABLES
  0
TABLE
  2
LTYPE
 70
1
  0
LTYPE
  2
CONTINUOUS
 70
64
  3
Solid line
 72
65
 73
0
 40
0
  0
ENDTAB
  0
TABLE
  2
LAYER
 70
255
  0
LAYER
  2
29
 70
64
 62
251
  6
CONTINUOUS
  0
LAYER
  2
46
 70
64
 62
134
  6
CONTINUOUS
  0
ENDTAB
  0
ENDSEC
  0
SECTION
  2
BLOCKS
  0
BLOCK
  8
0
  2
RECT
 70
64
 10
0.0000
 20
0.0000
 30
0.0000
  3
RECT
  0
SOLID
  8
0
 10
-0.5000
 20
-0.5000
 30
0.0000
 11
0.5000
 21
-0.5000
 31
0.0000
 12
-0.5000
 22
0.5000
 32
0.0000
 13
0.5000
 23
0.5000
 33
0.0000
  0
ENDBLK
  8
0
  0
BLOCK
  8
0
  2
PIE
 70
64
 10
0.0000
 20
0.0000
 30
0.0000
  3
PIE
  0
POLYLINE
  8
0
 66
1
 10
0.0000
 20
0.0000
 30
0.0000
 40
0.5000
 41
0.5000
 70
0
  0
VERTEX
  8
0
 10
0.0000
 20
-0.2500
 30
0.0000
 42
1.0000
  0
VERTEX
  8
0
 10
0.0000
 20
0.2500
 30
0.0000
 42
1.0000
  0
VERTEX
  8
0
 10
0.0000
 20
-0.2500
 30
0.0000
  0
SEQEND
  8
0
  0
ENDBLK
  8
0
  0
BLOCK
  8
0
  2
OCTAGONP
 70
64
 10
0.0000
 20
0.0000
 30
0.0000
  3
OCTAGONP
  0
POLYLINE
  8
0
 66
1
 10
0.0000
 20
0.0000
 30
0.0000
 40
0.5000
 41
0.5000
 70
0
  0
VERTEX
  8
0
 10
-0.2500
 20
-0.1036
 30
0.0000
  0
VERTEX
  8
0
 10
-0.2500
 20
0.1036
 30
0.0000
  0
VERTEX
  8
0
 10
-0.1036
 20
0.2500
 30
0.0000
  0
VERTEX
  8
0
 10
0.1036
 20
0.2500
 30
0.0000
  0
VERTEX
  8
0
 10
0.2500
 20
0.1036
 30
0.0000
  0
VERTEX
  8
0
 10
0.2500
 20
-0.1036
 30
0.0000
  0
VERTEX
  8
0
 10
0.1036
 20
-0.2500
 30
0.0000
  0
VERTEX
  8
0
 10
-0.1036
 20
-0.2500
 30
0.0000
  0
VERTEX
  8
0
 10
-0.2500
 20
-0.1036
 30
0.0000
  0
VERTEX
  8
0
 10
-0.2500
 20
0.1036
 30
0.0000
  0
SEQEND
  8
0
  0
ENDBLK
  8
0
  0
BLOCK
  8
0
  2
SQUAREP
 70
64
 10
0.0000
 20
0.0000
 30
0.0000
  3
SQUAREP
  0
SOLID
  8
0
 10
-0.5000
 20
-0.5000
 30
0.0000
 11
0.5000
 21
-0.5000
 31
0.0000
 12
-0.5000
 22
0.5000
 32
0.0000
 13
0.5000
 23
0.5000
 33
0.0000
  0
ENDBLK
  8
0
  0
BLOCK
  8
0
  2
ROUNDP
 70
64
 10
0.0000
 20
0.0000
 30
0.0000
  3
ROUNDP
  0
POLYLINE
  8
0
 66
1
 10
0.0000
 20
0.0000
 30
0.0000
 40
0.5000
 41
0.5000
 70
0
  0
VERTEX
  8
0
 10
0.0000
 20
-0.2500
 30
0.0000
 42
1.0000
  0
VERTEX
  8
0
 10
0.0000
 20
0.2500
 30
0.0000
 42
1.0000
  0
VERTEX
  8
0
 10
0.0000
 20
-0.2500
 30
0.0000
  0
SEQEND
  8
0
  0
ENDBLK
  8
0
  0
BLOCK
  8
0
  2
ANNULUSP
 70
64
 10
0.0000
 20
0.0000
 30
0.0000
  3
ANNULUSP
  0
POLYLINE
  8
0
 66
1
 10
0.0000
 20
0.0000
 30
0.0000
 40
0.5000
 41
0.5000
 70
0
  0
VERTEX
  8
0
 10
0.0000
 20
-0.2500
 30
0.0000
 42
1.0000
  0
VERTEX
  8
0
 10
0.0000
 20
0.2500
 30
0.0000
 42
1.0000
  0
VERTEX
  8
0
 10
0.0000
 20
-0.2500
 30
0.0000
  0
SEQEND
  8
0
  0
ENDBLK
  8
0
  0
BLOCK
  8
0
  2
THERMALP
 70
64
 10
0.0000
 20
0.0000
 30
0.0000
  3
THERMALP
  0
POLYLINE
  8
0
 66
1
 10
0.0000
 20
0.0000
 30
0.0000
 40
0.1000
 41
0.1000
 70
0
  0
VERTEX
  8
0
 10
-0.2379
 20
0.4500
 30
0.0000
  0
VERTEX
  8
0
 10
0.2379
 20
0.4500
 30
0.0000
  0
SEQEND
  8
0
  0
POLYLINE
  8
0
 66
1
 10
0.0000
 20
0.0000
 30
0.0000
 40
0.0500
 41
0.0500
 70
0
  0
VERTEX
  8
0
 10
0.2379
 20
0.4250
 30
0.0000
 42
1.0000
  0
VERTEX
  8
0
 10
0.2379
 20
0.4750
 30
0.0000
  0
SEQEND
  8
0
  0
POLYLINE
  8
0
 66
1
 10
0.0000
 20
0.0000
 30
0.0000
 40
0.0500
 41
0.0500
 70
0
  0
VERTEX
  8
0
 10
-0.2379
 20
0.4750
 30
0.0000
 42
1.0000
  0
VERTEX
  8
0
 10
-0.2379
 20
0.4250
 30
0.0000
  0
SEQEND
  8
0
  0
POLYLINE
  8
0
 66
1
 10
0.0000
 20
0.0000
 30
0.0000
 40
0.1000
 41
0.1000
 70
0
  0
VERTEX
  8
0
 10
0.4500
 20
0.2379
 30
0.0000
  0
VERTEX
  8
0
 10
0.4500
 20
-0.2379
 30
0.0000
  0
SEQEND
  8
0
  0
POLYLINE
  8
0
 66
1
 10
0.0000
 20
0.0000
 30
0.0000
 40
0.0500
 41
0.0500
 70
0
  0
VERTEX
  8
0
 10
0.4250
 20
-0.2379
 30
0.0000
 42
1.0000
  0
VERTEX
  8
0
 10
0.4750
 20
-0.2379
 30
0.0000
  0
SEQEND
  8
0
  0
POLYLINE
  8
0
 66
1
 10
0.0000
 20
0.0000
 30
0.0000
 40
0.0500
 41
0.0500
 70
0
  0
VERTEX
  8
0
 10
0.4750
 20
0.2379
 30
0.0000
 42
1.0000
  0
VERTEX
  8
0
 10
0.4250
 20
0.2379
 30
0.0000
  0
SEQEND
  8
0
  0
POLYLINE
  8
0
 66
1
 10
0.0000
 20
0.0000
 30
0.0000
 40
0.1000
 41
0.1000
 70
0
  0
VERTEX
  8
0
 10
0.2379
 20
-0.4500
 30
0.0000
  0
VERTEX
  8
0
 10
-0.2379
 20
-0.4500
 30
0.0000
  0
SEQEND
  8
0
  0
POLYLINE
  8
0
 66
1
 10
0.0000
 20
0.0000
 30
0.0000
 40
0.0500
 41
0.0500
 70
0
  0
VERTEX
  8
0
 10
-0.2379
 20
-0.4250
 30
0.0000
 42
1.0000
  0
VERTEX
  8
0
 10
-0.2379
 20
-0.4750
 30
0.0000
  0
SEQEND
  8
0
  0
POLYLINE
  8
0
 66
1
 10
0.0000
 20
0.0000
 30
0.0000
 40
0.0500
 41
0.0500
 70
0
  0
VERTEX
  8
0
 10
0.2379
 20
-0.4750
 30
0.0000
 42
1.0000
  0
VERTEX
  8
0
 10
0.2379
 20
-0.4250
 30
0.0000
  0
SEQEND
  8
0
  0
POLYLINE
  8
0
 66
1
 10
0.0000
 20
0.0000
 30
0.0000
 40
0.1000
 41
0.1000
 70
0
  0
VERTEX
  8
0
 10
-0.4500
 20
-0.2379
 30
0.0000
  0
VERTEX
  8
0
 10
-0.4500
 20
0.2379
 30
0.0000
  0
SEQEND
  8
0
  0
POLYLINE
  8
0
 66
1
 10
0.0000
 20
0.0000
 30
0.0000
 40
0.0500
 41
0.0500
 70
0
  0
VERTEX
  8
0
 10
-0.4250
 20
0.2379
 30
0.0000
 42
1.0000
  0
VERTEX
  8
0
 10
-0.4750
 20
0.2379
 30
0.0000
  0
SEQEND
  8
0
  0
POLYLINE
  8
0
 66
1
 10
0.0000
 20
0.0000
 30
0.0000
 40
0.0500
 41
0.0500
 70
0
  0
VERTEX
  8
0
 10
-0.4750
 20
-0.2379
 30
0.0000
 42
1.0000
  0
VERTEX
  8
0
 10
-0.4250
 20
-0.2379
 30
0.0000
  0
SEQEND
  8
0
  0
ENDBLK
  8
0
  0
BLOCK
  8
0
  2
OCTAGONV
 70
64
 10
0.0000
 20
0.0000
 30
0.0000
  3
OCTAGONV
  0
POLYLINE
  8
0
 66
1
 10
0.0000
 20
0.0000
 30
0.0000
 40
0.5000
 41
0.5000
 70
0
  0
VERTEX
  8
0
 10
-0.2500
 20
-0.1036
 30
0.0000
  0
VERTEX
  8
0
 10
-0.2500
 20
0.1036
 30
0.0000
  0
VERTEX
  8
0
 10
-0.1036
 20
0.2500
 30
0.0000
  0
VERTEX
  8
0
 10
0.1036
 20
0.2500
 30
0.0000
  0
VERTEX
  8
0
 10
0.2500
 20
0.1036
 30
0.0000
  0
VERTEX
  8
0
 10
0.2500
 20
-0.1036
 30
0.0000
  0
VERTEX
  8
0
 10
0.1036
 20
-0.2500
 30
0.0000
  0
VERTEX
  8
0
 10
-0.1036
 20
-0.2500
 30
0.0000
  0
VERTEX
  8
0
 10
-0.2500
 20
-0.1036
 30
0.0000
  0
VERTEX
  8
0
 10
-0.2500
 20
0.1036
 30
0.0000
  0
SEQEND
  8
0
  0
ENDBLK
  8
0
  0
BLOCK
  8
0
  2
SQUAREV
 70
64
 10
0.0000
 20
0.0000
 30
0.0000
  3
SQUAREV
  0
SOLID
  8
0
 10
-0.5000
 20
-0.5000
 30
0.0000
 11
0.5000
 21
-0.5000
 31
0.0000
 12
-0.5000
 22
0.5000
 32
0.0000
 13
0.5000
 23
0.5000
 33
0.0000
  0
ENDBLK
  8
0
  0
BLOCK
  8
0
  2
ROUNDV
 70
64
 10
0.0000
 20
0.0000
 30
0.0000
  3
ROUNDV
  0
POLYLINE
  8
0
 66
1
 10
0.0000
 20
0.0000
 30
0.0000
 40
0.5000
 41
0.5000
 70
0
  0
VERTEX
  8
0
 10
0.0000
 20
-0.2500
 30
0.0000
 42
1.0000
  0
VERTEX
  8
0
 10
0.0000
 20
0.2500
 30
0.0000
 42
1.0000
  0
VERTEX
  8
0
 10
0.0000
 20
-0.2500
 30
0.0000
  0
SEQEND
  8
0
  0
ENDBLK
  8
0
  0
BLOCK
  8
0
  2
ANNULUSV
 70
64
 10
0.0000
 20
0.0000
 30
0.0000
  3
ANNULUSV
  0
POLYLINE
  8
0
 66
1
 10
0.0000
 20
0.0000
 30
0.0000
 40
0.5000
 41
0.5000
 70
0
  0
VERTEX
  8
0
 10
0.0000
 20
-0.2500
 30
0.0000
 42
1.0000
  0
VERTEX
  8
0
 10
0.0000
 20
0.2500
 30
0.0000
 42
1.0000
  0
VERTEX
  8
0
 10
0.0000
 20
-0.2500
 30
0.0000
  0
SEQEND
  8
0
  0
ENDBLK
  8
0
  0
BLOCK
  8
0
  2
THERMALV
 70
64
 10
0.0000
 20
0.0000
 30
0.0000
  3
THERMALV
  0
POLYLINE
  8
0
 66
1
 10
0.0000
 20
0.0000
 30
0.0000
 40
0.1000
 41
0.1000
 70
0
  0
VERTEX
  8
0
 10
-0.2379
 20
0.4500
 30
0.0000
  0
VERTEX
  8
0
 10
0.2379
 20
0.4500
 30
0.0000
  0
SEQEND
  8
0
  0
POLYLINE
  8
0
 66
1
 10
0.0000
 20
0.0000
 30
0.0000
 40
0.0500
 41
0.0500
 70
0
  0
VERTEX
  8
0
 10
0.2379
 20
0.4250
 30
0.0000
 42
1.0000
  0
VERTEX
  8
0
 10
0.2379
 20
0.4750
 30
0.0000
  0
SEQEND
  8
0
  0
POLYLINE
  8
0
 66
1
 10
0.0000
 20
0.0000
 30
0.0000
 40
0.0500
 41
0.0500
 70
0
  0
VERTEX
  8
0
 10
-0.2379
 20
0.4750
 30
0.0000
 42
1.0000
  0
VERTEX
  8
0
 10
-0.2379
 20
0.4250
 30
0.0000
  0
SEQEND
  8
0
  0
POLYLINE
  8
0
 66
1
 10
0.0000
 20
0.0000
 30
0.0000
 40
0.1000
 41
0.1000
 70
0
  0
VERTEX
  8
0
 10
0.4500
 20
0.2379
 30
0.0000
  0
VERTEX
  8
0
 10
0.4500
 20
-0.2379
 30
0.0000
  0
SEQEND
  8
0
  0
POLYLINE
  8
0
 66
1
 10
0.0000
 20
0.0000
 30
0.0000
 40
0.0500
 41
0.0500
 70
0
  0
VERTEX
  8
0
 10
0.4250
 20
-0.2379
 30
0.0000
 42
1.0000
  0
VERTEX
  8
0
 10
0.4750
 20
-0.2379
 30
0.0000
  0
SEQEND
  8
0
  0
POLYLINE
  8
0
 66
1
 10
0.0000
 20
0.0000
 30
0.0000
 40
0.0500
 41
0.0500
 70
0
  0
VERTEX
  8
0
 10
0.4750
 20
0.2379
 30
0.0000
 42
1.0000
  0
VERTEX
  8
0
 10
0.4250
 20
0.2379
 30
0.0000
  0
SEQEND
  8
0
  0
POLYLINE
  8
0
 66
1
 10
0.0000
 20
0.0000
 30
0.0000
 40
0.1000
 41
0.1000
 70
0
  0
VERTEX
  8
0
 10
0.2379
 20
-0.4500
 30
0.0000
  0
VERTEX
  8
0
 10
-0.2379
 20
-0.4500
 30
0.0000
  0
SEQEND
  8
0
  0
POLYLINE
  8
0
 66
1
 10
0.0000
 20
0.0000
 30
0.0000
 40
0.0500
 41
0.0500
 70
0
  0
VERTEX
  8
0
 10
-0.2379
 20
-0.4250
 30
0.0000
 42
1.0000
  0
VERTEX
  8
0
 10
-0.2379
 20
-0.4750
 30
0.0000
  0
SEQEND
  8
0
  0
POLYLINE
  8
0
 66
1
 10
0.0000
 20
0.0000
 30
0.0000
 40
0.0500
 41
0.0500
 70
0
  0
VERTEX
  8
0
 10
0.2379
 20
-0.4750
 30
0.0000
 42
1.0000
  0
VERTEX
  8
0
 10
0.2379
 20
-0.4250
 30
0.0000
  0
SEQEND
  8
0
  0
POLYLINE
  8
0
 66
1
 10
0.0000
 20
0.0000
 30
0.0000
 40
0.1000
 41
0.1000
 70
0
  0
VERTEX
  8
0
 10
-0.4500
 20
-0.2379
 30
0.0000
  0
VERTEX
  8
0
 10
-0.4500
 20
0.2379
 30
0.0000
  0
SEQEND
  8
0
  0
POLYLINE
  8
0
 66
1
 10
0.0000
 20
0.0000
 30
0.0000
 40
0.0500
 41
0.0500
 70
0
  0
VERTEX
  8
0
 10
-0.4250
 20
0.2379
 30
0.0000
 42
1.0000
  0
VERTEX
  8
0
 10
-0.4750
 20
0.2379
 30
0.0000
  0
SEQEND
  8
0
  0
POLYLINE
  8
0
 66
1
 10
0.0000
 20
0.0000
 30
0.0000
 40
0.0500
 41
0.0500
 70
0
  0
VERTEX
  8
0
 10
-0.4750
 20
-0.2379
 30
0.0000
 42
1.0000
  0
VERTEX
  8
0
 10
-0.4250
 20
-0.2379
 30
0.0000
  0
SEQEND
  8
0
  0
ENDBLK
  8
0
  0
BLOCK
  8
0
  2
LONGP100
 70
64
 10
0.0000
 20
0.0000
 30
0.0000
  3
LONGP100
  0
POLYLINE
  8
0
 66
1
 10
0.0000
 20
0.0000
 30
0.0000
 40
1.0000
 41
1.0000
 70
0
  0
VERTEX
  8
0
 10
-0.5000
 20
0.0000
 30
0.0000
  0
VERTEX
  8
0
 10
0.5000
 20
0.0000
 30
0.0000
  0
SEQEND
  8
0
  0
POLYLINE
  8
0
 66
1
 10
0.0000
 20
0.0000
 30
0.0000
 40
0.5000
 41
0.5000
 70
0
  0
VERTEX
  8
0
 10
0.5000
 20
-0.2500
 30
0.0000
 42
1.0000
  0
VERTEX
  8
0
 10
0.5000
 20
0.2500
 30
0.0000
  0
SEQEND
  8
0
  0
POLYLINE
  8
0
 66
1
 10
0.0000
 20
0.0000
 30
0.0000
 40
0.5000
 41
0.5000
 70
0
  0
VERTEX
  8
0
 10
-0.5000
 20
0.2500
 30
0.0000
 42
1.0000
  0
VERTEX
  8
0
 10
-0.5000
 20
-0.2500
 30
0.0000
  0
SEQEND
  8
0
  0
ENDBLK
  8
0
  0
ENDSEC
  0
SECTION
  2
ENTITIES
  0
POLYLINE
  8
46
 66
1
 10
0.0000
 20
0.0000
 30
0.0000
 40
0.4064
 41
0.4064
 70
0
  0
VERTEX
  8
46
 10
72.3900
 20
26.6700
 30
0.0000
  0
VERTEX
  8
46
 10
38.1000
 20
26.6700
 30
0.0000
  0
SEQEND
  8
0
  0
POLYLINE
  8
46
 66
1
 10
0.0000
 20
0.0000
 30
0.0000
 40
0.2032
 41
0.2032
 70
0
  0
VERTEX
  8
46
 10
38.1000
 20
26.7716
 30
0.0000
 42
1.0000
  0
VERTEX
  8
46
 10
38.1000
 20
26.5684
 30
0.0000
  0
SEQEND
  8
0
  0
POLYLINE
  8
46
 66
1
 10
0.0000
 20
0.0000
 30
0.0000
 40
0.2032
 41
0.2032
 70
0
  0
VERTEX
  8
46
 10
72.3900
 20
26.5684
 30
0.0000
 42
1.0000
  0
VERTEX
  8
46
 10
72.3900
 20
26.7716
 30
0.0000
  0
SEQEND
  8
0
  0
POLYLINE
  8
46
 66
1
 10
0.0000
 20
0.0000
 30
0.0000
 40
0.4064
 41
0.4064
 70
0
  0
VERTEX
  8
46
 10
15.2400
 20
11.4300
 30
0.0000
  0
VERTEX
  8
46
 10
15.2400
 20
10.1600
 30
0.0000
  0
SEQEND
  8
0
  0
POLYLINE
  8
46
 66
1
 10
0.0000
 20
0.0000
 30
0.0000
 40
0.2032
 41
0.2032
 70
0
  0
VERTEX
  8
46
 10
15.1384
 20
10.1600
 30
0.0000
 42
1.0000
  0
VERTEX
  8
46
 10
15.3416
 20
10.1600
 30
0.0000
  0
SEQEND
  8
0
  0
POLYLINE
  8
46
 66
1
 10
0.0000
 20
0.0000
 30
0.0000
 40
0.2032
 41
0.2032
 70
0
  0
VERTEX
  8
46
 10
15.3416
 20
11.4300
 30
0.0000
 42
1.0000
  0
VERTEX
  8
46
 10
15.1384
 20
11.4300
 30
0.0000
  0
SEQEND
  8
0
  0
POLYLINE
  8
46
 66
1
 10
0.0000
 20
0.0000
 30
0.0000
 40
0.4064
 41
0.4064
 70
0
  0
VERTEX
  8
46
 10
15.2400
 20
11.4300
 30
0.0000
 42
0.0623
  0
VERTEX
  8
46
 10
15.2400
 20
10.1600
 30
0.0000
  0
SEQEND
  8
0
  0
POLYLINE
  8
46
 66
1
 10
0.0000
 20
0.0000
 30
0.0000
 40
0.2032
 41
0.2032
 70
0
  0
VERTEX
  8
46
 10
15.3408
 20
11.4174
 30
0.0000
 42
1.0000
  0
VERTEX
  8
46
 10
15.1392
 20
11.4426
 30
0.0000
  0
SEQEND
  8
0
  0
POLYLINE
  8
46
 66
1
 10
0.0000
 20
0.0000
 30
0.0000
 40
0.2032
 41
0.2032
 70
0
  0
VERTEX
  8
46
 10
15.1392
 20
10.1474
 30
0.0000
 42
1.0000
  0
VERTEX
  8
46
 10
15.3408
 20
10.1726
 30
0.0000
  0
SEQEND
  8
0
  0
POLYLINE
  8
46
 66
1
 10
0.0000
 20
0.0000
 30
0.0000
 40
0.4064
 41
0.4064
 70
0
  0
VERTEX
  8
46
 10
21.5900
 20
5.0800
 30
0.0000
  0
VERTEX
  8
46
 10
72.3900
 20
5.0800
 30
0.0000
  0
SEQEND
  8
0
  0
POLYLINE
  8
46
 66
1
 10
0.0000
 20
0.0000
 30
0.0000
 40
0.2032
 41
0.2032
 70
0
  0
VERTEX
  8
46
 10
72.3900
 20
4.9784
 30
0.0000
 42
1.0000
  0
VERTEX
  8
46
 10
72.3900
 20
5.1816
 30
0.0000
  0
SEQEND
  8
0
  0
POLYLINE
  8
46
 66
1
 10
0.0000
 20
0.0000
 30
0.0000
 40
0.2032
 41
0.2032
 70
0
  0
VERTEX
  8
46
 10
21.5900
 20
5.1816
 30
0.0000
 42
1.0000
  0
VERTEX
  8
46
 10
21.5900
 20
4.9784
 30
0.0000
  0
SEQEND
  8
0
  0
POLYLINE
  8
46
 66
1
 10
0.0000
 20
0.0000
 30
0.0000
 40
0.4064
 41
0.4064
 70
0
  0
VERTEX
  8
46
 10
15.2400
 20
10.1600
 30
0.0000
 42
0.4142
  0
VERTEX
  8
46
 10
21.5900
 20
5.0800
 30
0.0000
  0
SEQEND
  8
0
  0
POLYLINE
  8
46
 66
1
 10
0.0000
 20
0.0000
 30
0.0000
 40
0.2032
 41
0.2032
 70
0
  0
VERTEX
  8
46
 10
15.3410
 20
10.1712
 30
0.0000
 42
1.0000
  0
VERTEX
  8
46
 10
15.1390
 20
10.1488
 30
0.0000
  0
SEQEND
  8
0
  0
POLYLINE
  8
46
 66
1
 10
0.0000
 20
0.0000
 30
0.0000
 40
0.2032
 41
0.2032
 70
0
  0
VERTEX
  8
46
 10
21.6012
 20
4.9790
 30
0.0000
 42
1.0000
  0
VERTEX
  8
46
 10
21.5788
 20
5.1810
 30
0.0000
  0
SEQEND
  8
0
  0
POLYLINE
  8
46
 66
1
 10
0.0000
 20
0.0000
 30
0.0000
 40
0.4064
 41
0.4064
 70
0
  0
VERTEX
  8
46
 10
74.9300
 20
25.4000
 30
0.0000
  0
VERTEX
  8
46
 10
74.9300
 20
24.1300
 30
0.0000
  0
SEQEND
  8
0
  0
POLYLINE
  8
46
 66
1
 10
0.0000
 20
0.0000
 30
0.0000
 40
0.2032
 41
0.2032
 70
0
  0
VERTEX
  8
46
 10
74.8284
 20
24.1300
 30
0.0000
 42
1.0000
  0
VERTEX
  8
46
 10
75.0316
 20
24.1300
 30
0.0000
  0
SEQEND
  8
0
  0
POLYLINE
  8
46
 66
1
 10
0.0000
 20
0.0000
 30
0.0000
 40
0.2032
 41
0.2032
 70
0
  0
VERTEX
  8
46
 10
75.0316
 20
25.4000
 30
0.0000
 42
1.0000
  0
VERTEX
  8
46
 10
74.8284
 20
25.4000
 30
0.0000
  0
SEQEND
  8
0
  0
POLYLINE
  8
46
 66
1
 10
0.0000
 20
0.0000
 30
0.0000
 40
0.4064
 41
0.4064
 70
0
  0
VERTEX
  8
46
 10
74.9300
 20
24.1300
 30
0.0000
  0
VERTEX
  8
46
 10
74.9300
 20
7.6200
 30
0.0000
  0
SEQEND
  8
0
  0
POLYLINE
  8
46
 66
1
 10
0.0000
 20
0.0000
 30
0.0000
 40
0.2032
 41
0.2032
 70
0
  0
VERTEX
  8
46
 10
74.8284
 20
7.6200
 30
0.0000
 42
1.0000
  0
VERTEX
  8
46
 10
75.0316
 20
7.6200
 30
0.0000
  0
SEQEND
  8
0
  0
POLYLINE
  8
46
 66
1
 10
0.0000
 20
0.0000
 30
0.0000
 40
0.2032
 41
0.2032
 70
0
  0
VERTEX
  8
46
 10
75.0316
 20
24.1300
 30
0.0000
 42
1.0000
  0
VERTEX
  8
46
 10
74.8284
 20
24.1300
 30
0.0000
  0
SEQEND
  8
0
  0
POLYLINE
  8
46
 66
1
 10
0.0000
 20
0.0000
 30
0.0000
 40
0.4064
 41
0.4064
 70
0
  0
VERTEX
  8
46
 10
72.3900
 20
5.0800
 30
0.0000
 42
0.6180
  0
VERTEX
  8
46
 10
74.9300
 20
7.6200
 30
0.0000
  0
SEQEND
  8
0
  0
POLYLINE
  8
46
 66
1
 10
0.0000
 20
0.0000
 30
0.0000
 40
0.2032
 41
0.2032
 70
0
  0
VERTEX
  8
46
 10
72.4221
 20
5.1764
 30
0.0000
 42
1.0000
  0
VERTEX
  8
46
 10
72.3579
 20
4.9836
 30
0.0000
  0
SEQEND
  8
0
  0
POLYLINE
  8
46
 66
1
 10
0.0000
 20
0.0000
 30
0.0000
 40
0.2032
 41
0.2032
 70
0
  0
VERTEX
  8
46
 10
75.0264
 20
7.6521
 30
0.0000
 42
1.0000
  0
VERTEX
  8
46
 10
74.8336
 20
7.5879
 30
0.0000
  0
SEQEND
  8
0
  0
POLYLINE
  8
46
 66
1
 10
0.0000
 20
0.0000
 30
0.0000
 40
0.4064
 41
0.4064
 70
0
  0
VERTEX
  8
46
 10
74.9300
 20
24.1300
 30
0.0000
 42
0.6180
  0
VERTEX
  8
46
 10
72.3900
 20
26.6700
 30
0.0000
  0
SEQEND
  8
0
  0
POLYLINE
  8
46
 66
1
 10
0.0000
 20
0.0000
 30
0.0000
 40
0.2032
 41
0.2032
 70
0
  0
VERTEX
  8
46
 10
74.8336
 20
24.1621
 30
0.0000
 42
1.0000
  0
VERTEX
  8
46
 10
75.0264
 20
24.0979
 30
0.0000
  0
SEQEND
  8
0
  0
POLYLINE
  8
46
 66
1
 10
0.0000
 20
0.0000
 30
0.0000
 40
0.2032
 41
0.2032
 70
0
  0
VERTEX
  8
46
 10
72.3579
 20
26.7664
 30
0.0000
 42
1.0000
  0
VERTEX
  8
46
 10
72.4221
 20
26.5736
 30
0.0000
  0
SEQEND
  8
0
  0
POLYLINE
  8
46
 66
1
 10
0.0000
 20
0.0000
 30
0.0000
 40
0.4064
 41
0.4064
 70
0
  0
VERTEX
  8
46
 10
35.5600
 20
27.9400
 30
0.0000
 42
0.2841
  0
VERTEX
  8
46
 10
38.1000
 20
26.6700
 30
0.0000
  0
SEQEND
  8
0
  0
POLYLINE
  8
46
 66
1
 10
0.0000
 20
0.0000
 30
0.0000
 40
0.2032
 41
0.2032
 70
0
  0
VERTEX
  8
46
 10
35.6464
 20
27.9934
 30
0.0000
 42
1.0000
  0
VERTEX
  8
46
 10
35.4736
 20
27.8866
 30
0.0000
  0
SEQEND
  8
0
  0
POLYLINE
  8
46
 66
1
 10
0.0000
 20
0.0000
 30
0.0000
 40
0.2032
 41
0.2032
 70
0
  0
VERTEX
  8
46
 10
38.1091
 20
26.5688
 30
0.0000
 42
1.0000
  0
VERTEX
  8
46
 10
38.0909
 20
26.7712
 30
0.0000
  0
SEQEND
  8
0
  0
POLYLINE
  8
46
 66
1
 10
0.0000
 20
0.0000
 30
0.0000
 40
0.4064
 41
0.4064
 70
0
  0
VERTEX
  8
46
 10
35.5600
 20
27.9400
 30
0.0000
  0
VERTEX
  8
46
 10
35.5600
 20
46.9900
 30
0.0000
  0
SEQEND
  8
0
  0
POLYLINE
  8
46
 66
1
 10
0.0000
 20
0.0000
 30
0.0000
 40
0.2032
 41
0.2032
 70
0
  0
VERTEX
  8
46
 10
35.6616
 20
46.9900
 30
0.0000
 42
1.0000
  0
VERTEX
  8
46
 10
35.4584
 20
46.9900
 30
0.0000
  0
SEQEND
  8
0
  0
POLYLINE
  8
46
 66
1
 10
0.0000
 20
0.0000
 30
0.0000
 40
0.2032
 41
0.2032
 70
0
  0
VERTEX
  8
46
 10
35.4584
 20
27.9400
 30
0.0000
 42
1.0000
  0
VERTEX
  8
46
 10
35.6616
 20
27.9400
 30
0.0000
  0
SEQEND
  8
0
  0
POLYLINE
  8
46
 66
1
 10
0.0000
 20
0.0000
 30
0.0000
 40
0.4064
 41
0.4064
 70
0
  0
VERTEX
  8
46
 10
20.3200
 20
50.8000
 30
0.0000
  0
VERTEX
  8
46
 10
33.0200
 20
50.8000
 30
0.0000
  0
SEQEND
  8
0
  0
POLYLINE
  8
46
 66
1
 10
0.0000
 20
0.0000
 30
0.0000
 40
0.2032
 41
0.2032
 70
0
  0
VERTEX
  8
46
 10
33.0200
 20
50.6984
 30
0.0000
 42
1.0000
  0
VERTEX
  8
46
 10
33.0200
 20
50.9016
 30
0.0000
  0
SEQEND
  8
0
  0
POLYLINE
  8
46
 66
1
 10
0.0000
 20
0.0000
 30
0.0000
 40
0.2032
 41
0.2032
 70
0
  0
VERTEX
  8
46
 10
20.3200
 20
50.9016
 30
0.0000
 42
1.0000
  0
VERTEX
  8
46
 10
20.3200
 20
50.6984
 30
0.0000
  0
SEQEND
  8
0
  0
POLYLINE
  8
46
 66
1
 10
0.0000
 20
0.0000
 30
0.0000
 40
0.4064
 41
0.4064
 70
0
  0
VERTEX
  8
46
 10
35.5600
 20
46.9900
 30
0.0000
 42
0.4142
  0
VERTEX
  8
46
 10
33.0200
 20
50.8000
 30
0.0000
  0
SEQEND
  8
0
  0
POLYLINE
  8
46
 66
1
 10
0.0000
 20
0.0000
 30
0.0000
 40
0.2032
 41
0.2032
 70
0
  0
VERTEX
  8
46
 10
35.4604
 20
47.0099
 30
0.0000
 42
1.0000
  0
VERTEX
  8
46
 10
35.6596
 20
46.9701
 30
0.0000
  0
SEQEND
  8
0
  0
POLYLINE
  8
46
 66
1
 10
0.0000
 20
0.0000
 30
0.0000
 40
0.2032
 41
0.2032
 70
0
  0
VERTEX
  8
46
 10
33.0399
 20
50.8996
 30
0.0000
 42
1.0000
  0
VERTEX
  8
46
 10
33.0001
 20
50.7004
 30
0.0000
  0
SEQEND
  8
0
  0
POLYLINE
  8
46
 66
1
 10
0.0000
 20
0.0000
 30
0.0000
 40
0.4064
 41
0.4064
 70
0
  0
VERTEX
  8
46
 10
20.3200
 20
50.8000
 30
0.0000
 42
0.5000
  0
VERTEX
  8
46
 10
15.2400
 20
45.7200
 30
0.0000
  0
SEQEND
  8
0
  0
POLYLINE
  8
46
 66
1
 10
0.0000
 20
0.0000
 30
0.0000
 40
0.2032
 41
0.2032
 70
0
  0
VERTEX
  8
46
 10
20.3056
 20
50.6994
 30
0.0000
 42
1.0000
  0
VERTEX
  8
46
 10
20.3344
 20
50.9006
 30
0.0000
  0
SEQEND
  8
0
  0
POLYLINE
  8
46
 66
1
 10
0.0000
 20
0.0000
 30
0.0000
 40
0.2032
 41
0.2032
 70
0
  0
VERTEX
  8
46
 10
15.1394
 20
45.7056
 30
0.0000
 42
1.0000
  0
VERTEX
  8
46
 10
15.3406
 20
45.7344
 30
0.0000
  0
SEQEND
  8
0
  0
POLYLINE
  8
46
 66
1
 10
0.0000
 20
0.0000
 30
0.0000
 40
0.4064
 41
0.4064
 70
0
  0
VERTEX
  8
46
 10
15.2400
 20
45.7200
 30
0.0000
  0
VERTEX
  8
46
 10
15.2400
 20
11.4300
 30
0.0000
  0
SEQEND
  8
0
  0
POLYLINE
  8
46
 66
1
 10
0.0000
 20
0.0000
 30
0.0000
 40
0.2032
 41
0.2032
 70
0
  0
VERTEX
  8
46
 10
15.1384
 20
11.4300
 30
0.0000
 42
1.0000
  0
VERTEX
  8
46
 10
15.3416
 20
11.4300
 30
0.0000
  0
SEQEND
  8
0
  0
POLYLINE
  8
46
 66
1
 10
0.0000
 20
0.0000
 30
0.0000
 40
0.2032
 41
0.2032
 70
0
  0
VERTEX
  8
46
 10
15.3416
 20
45.7200
 30
0.0000
 42
1.0000
  0
VERTEX
  8
46
 10
15.1384
 20
45.7200
 30
0.0000
  0
SEQEND
  8
0
  0
INSERT
  8
29
  2
RECT
 10
55.0160
 20
19.6850
 30
0.0000
 41
0.7032
 42
1.6032
 43
1.0000
 50
270.0000
  0
INSERT
  8
29
  2
RECT
 10
55.0160
 20
18.4250
 30
0.0000
 41
0.7032
 42
1.6032
 43
1.0000
 50
270.0000
  0
INSERT
  8
29
  2
RECT
 10
55.0160
 20
17.1550
 30
0.0000
 41
0.7032
 42
1.6032
 43
1.0000
 50
270.0000
  0
INSERT
  8
29
  2
RECT
 10
55.0160
 20
15.8850
 30
0.0000
 41
0.7032
 42
1.6032
 43
1.0000
 50
270.0000
  0
INSERT
  8
29
  2
RECT
 10
61.8240
 20
15.8750
 30
0.0000
 41
0.7032
 42
1.6032
 43
1.0000
 50
270.0000
  0
INSERT
  8
29
  2
RECT
 10
61.8240
 20
17.1450
 30
0.0000
 41
0.7032
 42
1.6032
 43
1.0000
 50
270.0000
  0
INSERT
  8
29
  2
RECT
 10
61.8240
 20
18.4150
 30
0.0000
 41
0.7032
 42
1.6032
 43
1.0000
 50
270.0000
  0
INSERT
  8
29
  2
RECT
 10
61.8240
 20
19.6850
 30
0.0000
 41
0.7032
 42
1.6032
 43
1.0000
 50
270.0000
  0
INSERT
  8
29
  2
LONGP100
 10
31.7500
 20
35.5600
 30
0.0000
 41
1.7272
 42
1.7272
 43
1.0000
 50
180.0000
  0
INSERT
  8
29
  2
LONGP100
 10
31.7500
 20
38.1000
 30
0.0000
 41
1.7272
 42
1.7272
 43
1.0000
 50
180.0000
  0
INSERT
  8
29
  2
LONGP100
 10
69.8500
 20
24.1300
 30
0.0000
 41
1.7272
 42
1.7272
 43
1.0000
 50
0.0000
  0
INSERT
  8
29
  2
LONGP100
 10
69.8500
 20
21.5900
 30
0.0000
 41
1.7272
 42
1.7272
 43
1.0000
 50
0.0000
  0
INSERT
  8
29
  2
LONGP100
 10
69.8500
 20
19.0500
 30
0.0000
 41
1.7272
 42
1.7272
 43
1.0000
 50
0.0000
  0
INSERT
  8
29
  2
LONGP100
 10
69.8500
 20
16.5100
 30
0.0000
 41
1.7272
 42
1.7272
 43
1.0000
 50
0.0000
  0
INSERT
  8
29
  2
LONGP100
 10
69.8500
 20
13.9700
 30
0.0000
 41
1.7272
 42
1.7272
 43
1.0000
 50
0.0000
  0
INSERT
  8
29
  2
LONGP100
 10
69.8500
 20
11.4300
 30
0.0000
 41
1.7272
 42
1.7272
 43
1.0000
 50
0.0000
  0
INSERT
  8
29
  2
RECT
 10
49.5300
 20
11.4300
 30
0.0000
 41
1.4732
 42
2.7432
 43
1.0000
 50
0.0000
  0
INSERT
  8
29
  2
RECT
 10
40.6400
 20
11.4300
 30
0.0000
 41
1.4732
 42
2.7432
 43
1.0000
 50
0.0000
  0
INSERT
  8
29
  2
RECT
 10
27.0400
 20
16.5100
 30
0.0000
 41
1.0032
 42
1.4032
 43
1.0000
 50
0.0000
  0
INSERT
  8
29
  2
RECT
 10
28.8400
 20
16.5100
 30
0.0000
 41
1.0032
 42
1.4032
 43
1.0000
 50
0.0000
  0
INSERT
  8
29
  2
RECT
 10
27.0400
 20
21.5900
 30
0.0000
 41
1.0032
 42
1.4032
 43
1.0000
 50
0.0000
  0
INSERT
  8
29
  2
RECT
 10
28.8400
 20
21.5900
 30
0.0000
 41
1.0032
 42
1.4032
 43
1.0000
 50
0.0000
  0
INSERT
  8
29
  2
ROUNDP
 10
20.3200
 20
27.9400
 30
0.0000
 41
7.2032
 42
7.2032
 43
1.0000
 50
0.0000
  0
INSERT
  8
29
  2
ROUNDP
 10
20.3200
 20
45.7200
 30
0.0000
 41
7.2032
 42
7.2032
 43
1.0000
 50
0.0000
  0
INSERT
  8
29
  2
ROUNDP
 10
20.3200
 20
10.1600
 30
0.0000
 41
7.2032
 42
7.2032
 43
1.0000
 50
0.0000
  0
INSERT
  8
29
  2
SQUAREV
 10
33.0200
 20
21.5900
 30
0.0000
 41
1.2096
 42
1.2096
 43
1.0000
 50
0.0000
  0
INSERT
  8
29
  2
SQUAREV
 10
33.0200
 20
16.5100
 30
0.0000
 41
1.2096
 42
1.2096
 43
1.0000
 50
0.0000
  0
ENDSEC
  0
EOF
