  0
SECTION
  2
HEADER
  9
$ACADVER
  1
AC1009
  9
$FILLMODE
 70
0
  9
$EXTMIN
 10
-3.5560
 20
-3.5560
 30
0.0000
  9
$EXTMAX
 10
82.5500
 20
70.7250
 30
0.0000
  0
ENDSEC
  0
SECTION
  2
TABLES
  0
TABLE
  2
LTYPE
 70
1
  0
LTYPE
  2
CONTINUOUS
 70
64
  3
Solid line
 72
65
 73
0
 40
0
  0
ENDTAB
  0
TABLE
  2
LAYER
 70
255
  0
LAYER
  2
20
 70
64
 62
7
  6
CONTINUOUS
  0
LAYER
  2
29
 70
64
 62
253
  6
CONTINUOUS
  0
ENDTAB
  0
ENDSEC
  0
SECTION
  2
BLOCKS
  0
BLOCK
  8
0
  2
RECT
 70
64
 10
0.0000
 20
0.0000
 30
0.0000
  3
RECT
  0
SOLID
  8
0
 10
-0.5000
 20
-0.5000
 30
0.0000
 11
0.5000
 21
-0.5000
 31
0.0000
 12
-0.5000
 22
0.5000
 32
0.0000
 13
0.5000
 23
0.5000
 33
0.0000
  0
ENDBLK
  8
0
  0
BLOCK
  8
0
  2
PIE
 70
64
 10
0.0000
 20
0.0000
 30
0.0000
  3
PIE
  0
CIRCLE
  8
0
 10
0.0000
 20
0.0000
 30
0.0000
 40
0.5000
  0
ENDBLK
  8
0
  0
BLOCK
  8
0
  2
OCTAGONP
 70
64
 10
0.0000
 20
0.0000
 30
0.0000
  3
OCTAGONP
  0
POLYLINE
  8
0
 66
1
 10
0.0000
 20
0.0000
 30
0.0000
 40
0.0000
 41
0.0000
 70
1
  0
VERTEX
  8
0
 10
-0.5000
 20
-0.2071
 30
0.0000
  0
VERTEX
  8
0
 10
-0.5000
 20
0.2071
 30
0.0000
  0
VERTEX
  8
0
 10
-0.2071
 20
0.5000
 30
0.0000
  0
VERTEX
  8
0
 10
0.2071
 20
0.5000
 30
0.0000
  0
VERTEX
  8
0
 10
0.5000
 20
0.2071
 30
0.0000
  0
VERTEX
  8
0
 10
0.5000
 20
-0.2071
 30
0.0000
  0
VERTEX
  8
0
 10
0.2071
 20
-0.5000
 30
0.0000
  0
VERTEX
  8
0
 10
-0.2071
 20
-0.5000
 30
0.0000
  0
SEQEND
  8
0
  0
ENDBLK
  8
0
  0
BLOCK
  8
0
  2
SQUAREP
 70
64
 10
0.0000
 20
0.0000
 30
0.0000
  3
SQUAREP
  0
SOLID
  8
0
 10
-0.5000
 20
-0.5000
 30
0.0000
 11
0.5000
 21
-0.5000
 31
0.0000
 12
-0.5000
 22
0.5000
 32
0.0000
 13
0.5000
 23
0.5000
 33
0.0000
  0
ENDBLK
  8
0
  0
BLOCK
  8
0
  2
ROUNDP
 70
64
 10
0.0000
 20
0.0000
 30
0.0000
  3
ROUNDP
  0
CIRCLE
  8
0
 10
0.0000
 20
0.0000
 30
0.0000
 40
0.5000
  0
ENDBLK
  8
0
  0
BLOCK
  8
0
  2
ANNULUSP
 70
64
 10
0.0000
 20
0.0000
 30
0.0000
  3
ANNULUSP
  0
CIRCLE
  8
0
 10
0.0000
 20
0.0000
 30
0.0000
 40
0.5000
  0
ENDBLK
  8
0
  0
BLOCK
  8
0
  2
THERMALP
 70
64
 10
0.0000
 20
0.0000
 30
0.0000
  3
THERMALP
  0
POLYLINE
  8
0
 66
1
 10
0.0000
 20
0.0000
 30
0.0000
 40
0.0000
 41
0.0000
 70
1
  0
VERTEX
  8
0
 10
-0.2379
 20
0.4000
 30
0.0000
  0
VERTEX
  8
0
 10
0.2379
 20
0.4000
 30
0.0000
 42
1.0000
  0
VERTEX
  8
0
 10
0.2379
 20
0.5000
 30
0.0000
  0
VERTEX
  8
0
 10
-0.2379
 20
0.5000
 30
0.0000
 42
1.0000
  0
SEQEND
  8
0
  0
POLYLINE
  8
0
 66
1
 10
0.0000
 20
0.0000
 30
0.0000
 40
0.0000
 41
0.0000
 70
1
  0
VERTEX
  8
0
 10
0.4000
 20
0.2379
 30
0.0000
  0
VERTEX
  8
0
 10
0.4000
 20
-0.2379
 30
0.0000
 42
1.0000
  0
VERTEX
  8
0
 10
0.5000
 20
-0.2379
 30
0.0000
  0
VERTEX
  8
0
 10
0.5000
 20
0.2379
 30
0.0000
 42
1.0000
  0
SEQEND
  8
0
  0
POLYLINE
  8
0
 66
1
 10
0.0000
 20
0.0000
 30
0.0000
 40
0.0000
 41
0.0000
 70
1
  0
VERTEX
  8
0
 10
0.2379
 20
-0.4000
 30
0.0000
  0
VERTEX
  8
0
 10
-0.2379
 20
-0.4000
 30
0.0000
 42
1.0000
  0
VERTEX
  8
0
 10
-0.2379
 20
-0.5000
 30
0.0000
  0
VERTEX
  8
0
 10
0.2379
 20
-0.5000
 30
0.0000
 42
1.0000
  0
SEQEND
  8
0
  0
POLYLINE
  8
0
 66
1
 10
0.0000
 20
0.0000
 30
0.0000
 40
0.0000
 41
0.0000
 70
1
  0
VERTEX
  8
0
 10
-0.4000
 20
-0.2379
 30
0.0000
  0
VERTEX
  8
0
 10
-0.4000
 20
0.2379
 30
0.0000
 42
1.0000
  0
VERTEX
  8
0
 10
-0.5000
 20
0.2379
 30
0.0000
  0
VERTEX
  8
0
 10
-0.5000
 20
-0.2379
 30
0.0000
 42
1.0000
  0
SEQEND
  8
0
  0
ENDBLK
  8
0
  0
BLOCK
  8
0
  2
OCTAGONV
 70
64
 10
0.0000
 20
0.0000
 30
0.0000
  3
OCTAGONV
  0
POLYLINE
  8
0
 66
1
 10
0.0000
 20
0.0000
 30
0.0000
 40
0.0000
 41
0.0000
 70
1
  0
VERTEX
  8
0
 10
-0.5000
 20
-0.2071
 30
0.0000
  0
VERTEX
  8
0
 10
-0.5000
 20
0.2071
 30
0.0000
  0
VERTEX
  8
0
 10
-0.2071
 20
0.5000
 30
0.0000
  0
VERTEX
  8
0
 10
0.2071
 20
0.5000
 30
0.0000
  0
VERTEX
  8
0
 10
0.5000
 20
0.2071
 30
0.0000
  0
VERTEX
  8
0
 10
0.5000
 20
-0.2071
 30
0.0000
  0
VERTEX
  8
0
 10
0.2071
 20
-0.5000
 30
0.0000
  0
VERTEX
  8
0
 10
-0.2071
 20
-0.5000
 30
0.0000
  0
SEQEND
  8
0
  0
ENDBLK
  8
0
  0
BLOCK
  8
0
  2
SQUAREV
 70
64
 10
0.0000
 20
0.0000
 30
0.0000
  3
SQUAREV
  0
SOLID
  8
0
 10
-0.5000
 20
-0.5000
 30
0.0000
 11
0.5000
 21
-0.5000
 31
0.0000
 12
-0.5000
 22
0.5000
 32
0.0000
 13
0.5000
 23
0.5000
 33
0.0000
  0
ENDBLK
  8
0
  0
BLOCK
  8
0
  2
ROUNDV
 70
64
 10
0.0000
 20
0.0000
 30
0.0000
  3
ROUNDV
  0
CIRCLE
  8
0
 10
0.0000
 20
0.0000
 30
0.0000
 40
0.5000
  0
ENDBLK
  8
0
  0
BLOCK
  8
0
  2
ANNULUSV
 70
64
 10
0.0000
 20
0.0000
 30
0.0000
  3
ANNULUSV
  0
CIRCLE
  8
0
 10
0.0000
 20
0.0000
 30
0.0000
 40
0.5000
  0
ENDBLK
  8
0
  0
BLOCK
  8
0
  2
THERMALV
 70
64
 10
0.0000
 20
0.0000
 30
0.0000
  3
THERMALV
  0
POLYLINE
  8
0
 66
1
 10
0.0000
 20
0.0000
 30
0.0000
 40
0.0000
 41
0.0000
 70
1
  0
VERTEX
  8
0
 10
-0.2379
 20
0.4000
 30
0.0000
  0
VERTEX
  8
0
 10
0.2379
 20
0.4000
 30
0.0000
 42
1.0000
  0
VERTEX
  8
0
 10
0.2379
 20
0.5000
 30
0.0000
  0
VERTEX
  8
0
 10
-0.2379
 20
0.5000
 30
0.0000
 42
1.0000
  0
SEQEND
  8
0
  0
POLYLINE
  8
0
 66
1
 10
0.0000
 20
0.0000
 30
0.0000
 40
0.0000
 41
0.0000
 70
1
  0
VERTEX
  8
0
 10
0.4000
 20
0.2379
 30
0.0000
  0
VERTEX
  8
0
 10
0.4000
 20
-0.2379
 30
0.0000
 42
1.0000
  0
VERTEX
  8
0
 10
0.5000
 20
-0.2379
 30
0.0000
  0
VERTEX
  8
0
 10
0.5000
 20
0.2379
 30
0.0000
 42
1.0000
  0
SEQEND
  8
0
  0
POLYLINE
  8
0
 66
1
 10
0.0000
 20
0.0000
 30
0.0000
 40
0.0000
 41
0.0000
 70
1
  0
VERTEX
  8
0
 10
0.2379
 20
-0.4000
 30
0.0000
  0
VERTEX
  8
0
 10
-0.2379
 20
-0.4000
 30
0.0000
 42
1.0000
  0
VERTEX
  8
0
 10
-0.2379
 20
-0.5000
 30
0.0000
  0
VERTEX
  8
0
 10
0.2379
 20
-0.5000
 30
0.0000
 42
1.0000
  0
SEQEND
  8
0
  0
POLYLINE
  8
0
 66
1
 10
0.0000
 20
0.0000
 30
0.0000
 40
0.0000
 41
0.0000
 70
1
  0
VERTEX
  8
0
 10
-0.4000
 20
-0.2379
 30
0.0000
  0
VERTEX
  8
0
 10
-0.4000
 20
0.2379
 30
0.0000
 42
1.0000
  0
VERTEX
  8
0
 10
-0.5000
 20
0.2379
 30
0.0000
  0
VERTEX
  8
0
 10
-0.5000
 20
-0.2379
 30
0.0000
 42
1.0000
  0
SEQEND
  8
0
  0
ENDBLK
  8
0
  0
BLOCK
  8
0
  2
RECT160512X160512R100
 70
64
 10
0.0000
 20
0.0000
 30
0.0000
  3
RECT160512X160512R100
  0
POLYLINE
  8
0
 66
1
 10
0.0000
 20
0.0000
 30
0.0000
 40
0.0000
 41
0.0000
 70
1
  0
VERTEX
  8
0
 10
0.5016
 20
0.0000
 30
0.0000
  0
VERTEX
  8
0
 10
0.5016
 20
0.0000
 30
0.0000
 42
0.4142
  0
VERTEX
  8
0
 10
0.0000
 20
0.5016
 30
0.0000
  0
VERTEX
  8
0
 10
0.0000
 20
0.5016
 30
0.0000
 42
0.4142
  0
VERTEX
  8
0
 10
-0.5016
 20
0.0000
 30
0.0000
  0
VERTEX
  8
0
 10
-0.5016
 20
0.0000
 30
0.0000
 42
0.4142
  0
VERTEX
  8
0
 10
0.0000
 20
-0.5016
 30
0.0000
  0
VERTEX
  8
0
 10
0.0000
 20
-0.5016
 30
0.0000
 42
0.4142
  0
SEQEND
  8
0
  0
ENDBLK
  8
0
  0
ENDSEC
  0
SECTION
  2
ENTITIES
  0
ARC
  8
20
 10
26.0350
 20
52.7050
 30
0.0000
 40
6.3817
 50
185.7106
 51
84.2894
  0
ARC
  8
20
 10
54.4186
 20
52.2955
 30
0.0000
 40
6.1406
 50
94.1426
 51
15.8734
  0
ARC
  8
20
 10
40.1156
 20
29.2177
 30
0.0000
 40
31.8671
 50
181.1557
 51
6.8527
  0
ARC
  8
20
 10
118.4278
 20
30.7975
 30
0.0000
 40
110.1952
 50
178.8443
 51
181.1557
  0
LINE
  8
20
 10
8.2550
 20
33.0200
 30
0.0000
 11
5.0800
 21
33.0200
 31
0.0000
  0
ARC
  8
20
 10
4.7625
 20
40.3225
 30
0.0000
 40
7.3094
 50
182.4896
 51
272.4896
  0
ARC
  8
20
 10
13.9700
 20
40.0050
 30
0.0000
 40
16.5100
 50
90.0000
 51
180.0000
  0
ARC
  8
20
 10
14.4463
 20
48.4188
 30
0.0000
 40
8.1102
 50
49.7636
 51
93.3665
  0
LINE
  8
20
 10
19.6850
 20
54.6100
 30
0.0000
 11
19.6850
 21
52.0700
 31
0.0000
  0
ARC
  8
20
 10
38.1000
 20
59.0550
 30
0.0000
 40
11.4300
 50
90.0000
 51
180.0000
  0
LINE
  8
20
 10
38.1000
 20
70.4850
 30
0.0000
 11
41.9100
 21
70.4850
 31
0.0000
  0
ARC
  8
20
 10
41.9100
 20
58.4200
 30
0.0000
 40
12.0650
 50
0.0000
 51
90.0000
  0
ARC
  8
20
 10
76.4778
 20
39.0922
 30
0.0000
 40
6.0827
 50
273.3665
 51
356.6335
  0
ARC
  8
20
 10
74.2950
 20
54.5354
 30
0.0000
 40
21.6648
 50
263.2671
 51
276.7329
  0
ARC
  8
20
 10
64.0880
 20
38.7350
 30
0.0000
 40
18.4620
 50
0.0000
 51
85.9092
  0
ARC
  8
20
 10
65.8440
 20
50.7962
 30
0.0000
 40
6.3690
 50
93.9521
 51
150.0587
  0
INSERT
  8
29
  2
RECT
 10
38.7350
 20
12.3800
 30
0.0000
 41
1.5032
 42
1.7032
 43
1.0000
 50
270.0000
  0
INSERT
  8
29
  2
RECT
 10
38.7350
 20
10.4800
 30
0.0000
 41
1.5032
 42
1.7032
 43
1.0000
 50
270.0000
  0
INSERT
  8
29
  2
RECT
 10
52.3900
 20
10.1600
 30
0.0000
 41
1.5032
 42
1.7032
 43
1.0000
 50
0.0000
  0
INSERT
  8
29
  2
RECT
 10
54.2900
 20
10.1600
 30
0.0000
 41
1.5032
 42
1.7032
 43
1.0000
 50
0.0000
  0
INSERT
  8
29
  2
RECT
 10
21.9100
 20
36.1950
 30
0.0000
 41
1.5032
 42
1.7032
 43
1.0000
 50
0.0000
  0
INSERT
  8
29
  2
RECT
 10
23.8100
 20
36.1950
 30
0.0000
 41
1.5032
 42
1.7032
 43
1.0000
 50
0.0000
  0
INSERT
  8
29
  2
RECT
 10
35.8750
 20
30.4800
 30
0.0000
 41
1.5032
 42
1.7032
 43
1.0000
 50
180.0000
  0
INSERT
  8
29
  2
RECT
 10
33.9750
 20
30.4800
 30
0.0000
 41
1.5032
 42
1.7032
 43
1.0000
 50
180.0000
  0
INSERT
  8
29
  2
ROUNDP
 10
60.3250
 20
38.1000
 30
0.0000
 41
2.0828
 42
2.0828
 43
1.0000
 50
270.0000
  0
INSERT
  8
29
  2
ROUNDP
 10
60.0710
 20
35.5600
 30
0.0000
 41
2.0828
 42
2.0828
 43
1.0000
 50
270.0000
  0
INSERT
  8
29
  2
ROUNDP
 10
60.3250
 20
33.0200
 30
0.0000
 41
2.0828
 42
2.0828
 43
1.0000
 50
270.0000
  0
INSERT
  8
29
  2
ROUNDP
 10
60.0710
 20
30.4800
 30
0.0000
 41
2.0828
 42
2.0828
 43
1.0000
 50
270.0000
  0
INSERT
  8
29
  2
ROUNDP
 10
60.3250
 20
27.9400
 30
0.0000
 41
2.0828
 42
2.0828
 43
1.0000
 50
270.0000
  0
INSERT
  8
29
  2
ROUNDP
 10
60.0710
 20
25.4000
 30
0.0000
 41
2.0828
 42
2.0828
 43
1.0000
 50
270.0000
  0
INSERT
  8
29
  2
ROUNDP
 10
33.7500
 20
15.8750
 30
0.0000
 41
1.8796
 42
1.8796
 43
1.0000
 50
180.0000
  0
INSERT
  8
29
  2
ROUNDP
 10
33.7500
 20
18.4150
 30
0.0000
 41
1.8796
 42
1.8796
 43
1.0000
 50
180.0000
  0
INSERT
  8
29
  2
RECT
 10
39.0550
 20
54.7800
 30
0.0000
 41
1.2032
 42
1.6032
 43
1.0000
 50
0.0000
  0
INSERT
  8
29
  2
RECT
 10
40.9550
 20
54.7800
 30
0.0000
 41
1.2032
 42
1.6032
 43
1.0000
 50
0.0000
  0
INSERT
  8
29
  2
RECT
 10
40.0050
 20
56.9800
 30
0.0000
 41
1.2032
 42
1.6032
 43
1.0000
 50
0.0000
  0
INSERT
  8
29
  2
RECT
 10
26.3550
 20
40.1750
 30
0.0000
 41
1.2032
 42
1.6032
 43
1.0000
 50
0.0000
  0
INSERT
  8
29
  2
RECT
 10
28.2550
 20
40.1750
 30
0.0000
 41
1.2032
 42
1.6032
 43
1.0000
 50
0.0000
  0
INSERT
  8
29
  2
RECT
 10
27.3050
 20
42.3750
 30
0.0000
 41
1.2032
 42
1.6032
 43
1.0000
 50
0.0000
  0
INSERT
  8
29
  2
RECT
 10
55.5650
 20
40.1750
 30
0.0000
 41
1.2032
 42
1.6032
 43
1.0000
 50
0.0000
  0
INSERT
  8
29
  2
RECT
 10
57.4650
 20
40.1750
 30
0.0000
 41
1.2032
 42
1.6032
 43
1.0000
 50
0.0000
  0
INSERT
  8
29
  2
RECT
 10
56.5150
 20
42.3750
 30
0.0000
 41
1.2032
 42
1.6032
 43
1.0000
 50
0.0000
  0
INSERT
  8
29
  2
RECT
 10
38.7350
 20
15.5600
 30
0.0000
 41
1.5032
 42
1.7032
 43
1.0000
 50
90.0000
  0
INSERT
  8
29
  2
RECT
 10
38.7350
 20
17.4600
 30
0.0000
 41
1.5032
 42
1.7032
 43
1.0000
 50
90.0000
  0
INSERT
  8
29
  2
RECT
 10
42.2300
 20
10.1600
 30
0.0000
 41
1.5032
 42
1.7032
 43
1.0000
 50
0.0000
  0
INSERT
  8
29
  2
RECT
 10
44.1300
 20
10.1600
 30
0.0000
 41
1.5032
 42
1.7032
 43
1.0000
 50
0.0000
  0
INSERT
  8
29
  2
RECT
 10
47.3100
 20
10.1600
 30
0.0000
 41
1.5032
 42
1.7032
 43
1.0000
 50
0.0000
  0
INSERT
  8
29
  2
RECT
 10
49.2100
 20
10.1600
 30
0.0000
 41
1.5032
 42
1.7032
 43
1.0000
 50
0.0000
  0
INSERT
  8
29
  2
RECT
 10
21.5900
 20
26.9900
 30
0.0000
 41
1.5032
 42
1.7032
 43
1.0000
 50
90.0000
  0
INSERT
  8
29
  2
RECT
 10
21.5900
 20
28.8900
 30
0.0000
 41
1.5032
 42
1.7032
 43
1.0000
 50
90.0000
  0
INSERT
  8
29
  2
RECT
 10
21.5900
 20
33.9700
 30
0.0000
 41
1.5032
 42
1.7032
 43
1.0000
 50
270.0000
  0
INSERT
  8
29
  2
RECT
 10
21.5900
 20
32.0700
 30
0.0000
 41
1.5032
 42
1.7032
 43
1.0000
 50
270.0000
  0
INSERT
  8
29
  2
RECT
 10
28.2550
 20
36.1950
 30
0.0000
 41
1.5032
 42
1.7032
 43
1.0000
 50
180.0000
  0
INSERT
  8
29
  2
RECT
 10
26.3550
 20
36.1950
 30
0.0000
 41
1.5032
 42
1.7032
 43
1.0000
 50
180.0000
  0
INSERT
  8
29
  2
PIE
 10
43.1800
 20
21.5900
 30
0.0000
 41
1.0032
 42
1.0032
 43
1.0000
 50
0.0000
  0
INSERT
  8
29
  2
PIE
 10
50.1650
 20
21.5900
 30
0.0000
 41
1.0032
 42
1.0032
 43
1.0000
 50
0.0000
  0
INSERT
  8
29
  2
PIE
 10
44.4500
 20
22.8600
 30
0.0000
 41
1.0032
 42
1.0032
 43
1.0000
 50
0.0000
  0
INSERT
  8
29
  2
PIE
 10
51.4350
 20
22.8600
 30
0.0000
 41
1.0032
 42
1.0032
 43
1.0000
 50
0.0000
  0
INSERT
  8
29
  2
PIE
 10
45.7200
 20
24.1300
 30
0.0000
 41
1.0032
 42
1.0032
 43
1.0000
 50
0.0000
  0
INSERT
  8
29
  2
PIE
 10
52.7050
 20
24.1300
 30
0.0000
 41
1.0032
 42
1.0032
 43
1.0000
 50
0.0000
  0
INSERT
  8
29
  2
PIE
 10
54.6100
 20
13.3350
 30
0.0000
 41
1.0032
 42
1.0032
 43
1.0000
 50
0.0000
  0
INSERT
  8
29
  2
PIE
 10
57.7850
 20
13.3350
 30
0.0000
 41
1.0032
 42
1.0032
 43
1.0000
 50
0.0000
  0
INSERT
  8
29
  2
PIE
 10
44.4500
 20
45.7200
 30
0.0000
 41
1.0032
 42
1.0032
 43
1.0000
 50
0.0000
  0
INSERT
  8
29
  2
PIE
 10
52.7050
 20
38.1000
 30
0.0000
 41
1.0032
 42
1.0032
 43
1.0000
 50
0.0000
  0
INSERT
  8
29
  2
PIE
 10
45.7200
 20
48.8950
 30
0.0000
 41
1.0032
 42
1.0032
 43
1.0000
 50
0.0000
  0
INSERT
  8
29
  2
PIE
 10
50.1650
 20
41.9100
 30
0.0000
 41
1.0032
 42
1.0032
 43
1.0000
 50
0.0000
  0
INSERT
  8
29
  2
PIE
 10
51.4350
 20
40.0050
 30
0.0000
 41
1.0032
 42
1.0032
 43
1.0000
 50
0.0000
  0
INSERT
  8
29
  2
PIE
 10
45.7200
 20
46.9900
 30
0.0000
 41
1.0032
 42
1.0032
 43
1.0000
 50
0.0000
  0
INSERT
  8
29
  2
PIE
 10
47.6250
 20
36.8300
 30
0.0000
 41
1.0032
 42
1.0032
 43
1.0000
 50
0.0000
  0
INSERT
  8
29
  2
PIE
 10
55.2450
 20
36.8300
 30
0.0000
 41
1.0032
 42
1.0032
 43
1.0000
 50
0.0000
  0
INSERT
  8
29
  2
PIE
 10
47.6250
 20
35.5600
 30
0.0000
 41
1.0032
 42
1.0032
 43
1.0000
 50
0.0000
  0
INSERT
  8
29
  2
PIE
 10
55.2450
 20
35.5600
 30
0.0000
 41
1.0032
 42
1.0032
 43
1.0000
 50
0.0000
  0
INSERT
  8
29
  2
PIE
 10
44.4500
 20
31.7500
 30
0.0000
 41
1.0032
 42
1.0032
 43
1.0000
 50
0.0000
  0
INSERT
  8
29
  2
PIE
 10
48.8950
 20
31.7500
 30
0.0000
 41
1.0032
 42
1.0032
 43
1.0000
 50
0.0000
  0
INSERT
  8
29
  2
PIE
 10
47.6250
 20
26.6700
 30
0.0000
 41
1.0032
 42
1.0032
 43
1.0000
 50
0.0000
  0
INSERT
  8
29
  2
PIE
 10
56.5150
 20
26.6700
 30
0.0000
 41
1.0032
 42
1.0032
 43
1.0000
 50
0.0000
  0
INSERT
  8
29
  2
PIE
 10
47.6250
 20
29.2100
 30
0.0000
 41
1.0032
 42
1.0032
 43
1.0000
 50
0.0000
  0
INSERT
  8
29
  2
PIE
 10
53.9750
 20
29.2100
 30
0.0000
 41
1.0032
 42
1.0032
 43
1.0000
 50
0.0000
  0
INSERT
  8
29
  2
PIE
 10
39.3700
 20
26.6700
 30
0.0000
 41
1.0032
 42
1.0032
 43
1.0000
 50
0.0000
  0
INSERT
  8
29
  2
PIE
 10
39.3700
 20
30.4800
 30
0.0000
 41
1.0032
 42
1.0032
 43
1.0000
 50
0.0000
  0
INSERT
  8
29
  2
PIE
 10
45.0850
 20
34.2900
 30
0.0000
 41
1.0032
 42
1.0032
 43
1.0000
 50
0.0000
  0
INSERT
  8
29
  2
PIE
 10
32.3850
 20
44.4500
 30
0.0000
 41
1.0032
 42
1.0032
 43
1.0000
 50
0.0000
  0
INSERT
  8
29
  2
PIE
 10
31.1150
 20
44.4500
 30
0.0000
 41
1.0032
 42
1.0032
 43
1.0000
 50
0.0000
  0
INSERT
  8
29
  2
PIE
 10
18.4150
 20
24.1300
 30
0.0000
 41
1.0032
 42
1.0032
 43
1.0000
 50
0.0000
  0
INSERT
  8
29
  2
PIE
 10
25.4000
 20
22.2250
 30
0.0000
 41
1.0032
 42
1.0032
 43
1.0000
 50
0.0000
  0
INSERT
  8
29
  2
PIE
 10
30.4800
 20
41.2750
 30
0.0000
 41
1.0032
 42
1.0032
 43
1.0000
 50
0.0000
  0
INSERT
  8
29
  2
PIE
 10
33.6550
 20
45.0850
 30
0.0000
 41
1.0032
 42
1.0032
 43
1.0000
 50
0.0000
  0
INSERT
  8
29
  2
PIE
 10
24.1300
 20
24.1300
 30
0.0000
 41
1.0032
 42
1.0032
 43
1.0000
 50
0.0000
  0
INSERT
  8
29
  2
PIE
 10
26.6700
 20
24.1300
 30
0.0000
 41
1.0032
 42
1.0032
 43
1.0000
 50
0.0000
  0
INSERT
  8
29
  2
PIE
 10
47.6250
 20
34.2900
 30
0.0000
 41
1.0032
 42
1.0032
 43
1.0000
 50
0.0000
  0
INSERT
  8
29
  2
PIE
 10
55.2450
 20
34.2900
 30
0.0000
 41
1.0032
 42
1.0032
 43
1.0000
 50
0.0000
  0
INSERT
  8
29
  2
RECT
 10
41.9100
 20
13.9100
 30
0.0000
 41
0.8032
 42
2.4032
 43
1.0000
 50
0.0000
  0
INSERT
  8
29
  2
RECT
 10
43.1800
 20
13.9100
 30
0.0000
 41
0.8032
 42
2.4032
 43
1.0000
 50
0.0000
  0
INSERT
  8
29
  2
RECT
 10
44.4500
 20
13.9100
 30
0.0000
 41
0.8032
 42
2.4032
 43
1.0000
 50
0.0000
  0
INSERT
  8
29
  2
RECT
 10
45.7200
 20
13.9100
 30
0.0000
 41
0.8032
 42
2.4032
 43
1.0000
 50
0.0000
  0
INSERT
  8
29
  2
RECT
 10
45.7200
 20
19.1100
 30
0.0000
 41
0.8032
 42
2.4032
 43
1.0000
 50
0.0000
  0
INSERT
  8
29
  2
RECT
 10
44.4500
 20
19.1100
 30
0.0000
 41
0.8032
 42
2.4032
 43
1.0000
 50
0.0000
  0
INSERT
  8
29
  2
RECT
 10
43.1800
 20
19.1100
 30
0.0000
 41
0.8032
 42
2.4032
 43
1.0000
 50
0.0000
  0
INSERT
  8
29
  2
RECT
 10
41.9100
 20
19.1100
 30
0.0000
 41
0.8032
 42
2.4032
 43
1.0000
 50
0.0000
  0
INSERT
  8
29
  2
RECT
 10
48.8950
 20
13.9100
 30
0.0000
 41
0.8032
 42
2.4032
 43
1.0000
 50
0.0000
  0
INSERT
  8
29
  2
RECT
 10
50.1650
 20
13.9100
 30
0.0000
 41
0.8032
 42
2.4032
 43
1.0000
 50
0.0000
  0
INSERT
  8
29
  2
RECT
 10
51.4350
 20
13.9100
 30
0.0000
 41
0.8032
 42
2.4032
 43
1.0000
 50
0.0000
  0
INSERT
  8
29
  2
RECT
 10
52.7050
 20
13.9100
 30
0.0000
 41
0.8032
 42
2.4032
 43
1.0000
 50
0.0000
  0
INSERT
  8
29
  2
RECT
 10
52.7050
 20
19.1100
 30
0.0000
 41
0.8032
 42
2.4032
 43
1.0000
 50
0.0000
  0
INSERT
  8
29
  2
RECT
 10
51.4350
 20
19.1100
 30
0.0000
 41
0.8032
 42
2.4032
 43
1.0000
 50
0.0000
  0
INSERT
  8
29
  2
RECT
 10
50.1650
 20
19.1100
 30
0.0000
 41
0.8032
 42
2.4032
 43
1.0000
 50
0.0000
  0
INSERT
  8
29
  2
RECT
 10
48.8950
 20
19.1100
 30
0.0000
 41
0.8032
 42
2.4032
 43
1.0000
 50
0.0000
  0
INSERT
  8
29
  2
RECT
 10
27.9400
 20
33.0800
 30
0.0000
 41
0.8032
 42
2.4032
 43
1.0000
 50
180.0000
  0
INSERT
  8
29
  2
RECT
 10
26.6700
 20
33.0800
 30
0.0000
 41
0.8032
 42
2.4032
 43
1.0000
 50
180.0000
  0
INSERT
  8
29
  2
RECT
 10
25.4000
 20
33.0800
 30
0.0000
 41
0.8032
 42
2.4032
 43
1.0000
 50
180.0000
  0
INSERT
  8
29
  2
RECT
 10
24.1300
 20
33.0800
 30
0.0000
 41
0.8032
 42
2.4032
 43
1.0000
 50
180.0000
  0
INSERT
  8
29
  2
RECT
 10
24.1300
 20
27.8800
 30
0.0000
 41
0.8032
 42
2.4032
 43
1.0000
 50
180.0000
  0
INSERT
  8
29
  2
RECT
 10
25.4000
 20
27.8800
 30
0.0000
 41
0.8032
 42
2.4032
 43
1.0000
 50
180.0000
  0
INSERT
  8
29
  2
RECT
 10
26.6700
 20
27.8800
 30
0.0000
 41
0.8032
 42
2.4032
 43
1.0000
 50
180.0000
  0
INSERT
  8
29
  2
RECT
 10
27.9400
 20
27.8800
 30
0.0000
 41
0.8032
 42
2.4032
 43
1.0000
 50
180.0000
  0
INSERT
  8
29
  2
RECT
 10
32.4404
 20
38.0972
 30
0.0000
 41
1.7032
 42
0.7032
 43
1.0000
 50
45.0000
  0
INSERT
  8
29
  2
RECT
 10
33.0060
 20
37.5315
 30
0.0000
 41
1.7032
 42
0.7032
 43
1.0000
 50
45.0000
  0
INSERT
  8
29
  2
RECT
 10
33.5717
 20
36.9658
 30
0.0000
 41
1.7032
 42
0.7032
 43
1.0000
 50
45.0000
  0
INSERT
  8
29
  2
RECT
 10
34.1374
 20
36.4002
 30
0.0000
 41
1.7032
 42
0.7032
 43
1.0000
 50
45.0000
  0
INSERT
  8
29
  2
RECT
 10
34.7031
 20
35.8345
 30
0.0000
 41
1.7032
 42
0.7032
 43
1.0000
 50
45.0000
  0
INSERT
  8
29
  2
RECT
 10
35.2688
 20
35.2688
 30
0.0000
 41
1.7032
 42
0.7032
 43
1.0000
 50
45.0000
  0
INSERT
  8
29
  2
RECT
 10
35.8345
 20
34.7031
 30
0.0000
 41
1.7032
 42
0.7032
 43
1.0000
 50
45.0000
  0
INSERT
  8
29
  2
RECT
 10
36.4002
 20
34.1374
 30
0.0000
 41
1.7032
 42
0.7032
 43
1.0000
 50
45.0000
  0
INSERT
  8
29
  2
RECT
 10
36.9658
 20
33.5717
 30
0.0000
 41
1.7032
 42
0.7032
 43
1.0000
 50
45.0000
  0
INSERT
  8
29
  2
RECT
 10
37.5315
 20
33.0060
 30
0.0000
 41
1.7032
 42
0.7032
 43
1.0000
 50
45.0000
  0
INSERT
  8
29
  2
RECT
 10
38.0972
 20
32.4404
 30
0.0000
 41
1.7032
 42
0.7032
 43
1.0000
 50
45.0000
  0
INSERT
  8
29
  2
RECT
 10
40.6428
 20
32.4404
 30
0.0000
 41
0.7032
 42
1.7032
 43
1.0000
 50
45.0000
  0
INSERT
  8
29
  2
RECT
 10
41.2085
 20
33.0060
 30
0.0000
 41
0.7032
 42
1.7032
 43
1.0000
 50
45.0000
  0
INSERT
  8
29
  2
RECT
 10
41.7742
 20
33.5717
 30
0.0000
 41
0.7032
 42
1.7032
 43
1.0000
 50
45.0000
  0
INSERT
  8
29
  2
RECT
 10
42.3398
 20
34.1374
 30
0.0000
 41
0.7032
 42
1.7032
 43
1.0000
 50
45.0000
  0
INSERT
  8
29
  2
RECT
 10
42.9055
 20
34.7031
 30
0.0000
 41
0.7032
 42
1.7032
 43
1.0000
 50
45.0000
  0
INSERT
  8
29
  2
RECT
 10
43.4712
 20
35.2688
 30
0.0000
 41
0.7032
 42
1.7032
 43
1.0000
 50
45.0000
  0
INSERT
  8
29
  2
RECT
 10
44.0369
 20
35.8345
 30
0.0000
 41
0.7032
 42
1.7032
 43
1.0000
 50
45.0000
  0
INSERT
  8
29
  2
RECT
 10
44.6026
 20
36.4002
 30
0.0000
 41
0.7032
 42
1.7032
 43
1.0000
 50
45.0000
  0
INSERT
  8
29
  2
RECT
 10
45.1683
 20
36.9658
 30
0.0000
 41
0.7032
 42
1.7032
 43
1.0000
 50
45.0000
  0
INSERT
  8
29
  2
RECT
 10
45.7340
 20
37.5315
 30
0.0000
 41
0.7032
 42
1.7032
 43
1.0000
 50
45.0000
  0
INSERT
  8
29
  2
RECT
 10
46.2996
 20
38.0972
 30
0.0000
 41
0.7032
 42
1.7032
 43
1.0000
 50
45.0000
  0
INSERT
  8
29
  2
RECT
 10
46.2996
 20
40.6428
 30
0.0000
 41
1.7032
 42
0.7032
 43
1.0000
 50
45.0000
  0
INSERT
  8
29
  2
RECT
 10
45.7340
 20
41.2085
 30
0.0000
 41
1.7032
 42
0.7032
 43
1.0000
 50
45.0000
  0
INSERT
  8
29
  2
RECT
 10
45.1683
 20
41.7742
 30
0.0000
 41
1.7032
 42
0.7032
 43
1.0000
 50
45.0000
  0
INSERT
  8
29
  2
RECT
 10
44.6026
 20
42.3398
 30
0.0000
 41
1.7032
 42
0.7032
 43
1.0000
 50
45.0000
  0
INSERT
  8
29
  2
RECT
 10
44.0369
 20
42.9055
 30
0.0000
 41
1.7032
 42
0.7032
 43
1.0000
 50
45.0000
  0
INSERT
  8
29
  2
RECT
 10
43.4712
 20
43.4712
 30
0.0000
 41
1.7032
 42
0.7032
 43
1.0000
 50
45.0000
  0
INSERT
  8
29
  2
RECT
 10
42.9055
 20
44.0369
 30
0.0000
 41
1.7032
 42
0.7032
 43
1.0000
 50
45.0000
  0
INSERT
  8
29
  2
RECT
 10
42.3398
 20
44.6026
 30
0.0000
 41
1.7032
 42
0.7032
 43
1.0000
 50
45.0000
  0
INSERT
  8
29
  2
RECT
 10
41.7742
 20
45.1683
 30
0.0000
 41
1.7032
 42
0.7032
 43
1.0000
 50
45.0000
  0
INSERT
  8
29
  2
RECT
 10
41.2085
 20
45.7340
 30
0.0000
 41
1.7032
 42
0.7032
 43
1.0000
 50
45.0000
  0
INSERT
  8
29
  2
RECT
 10
40.6428
 20
46.2996
 30
0.0000
 41
1.7032
 42
0.7032
 43
1.0000
 50
45.0000
  0
INSERT
  8
29
  2
RECT
 10
38.0972
 20
46.2996
 30
0.0000
 41
0.7032
 42
1.7032
 43
1.0000
 50
45.0000
  0
INSERT
  8
29
  2
RECT
 10
37.5315
 20
45.7340
 30
0.0000
 41
0.7032
 42
1.7032
 43
1.0000
 50
45.0000
  0
INSERT
  8
29
  2
RECT
 10
36.9658
 20
45.1683
 30
0.0000
 41
0.7032
 42
1.7032
 43
1.0000
 50
45.0000
  0
INSERT
  8
29
  2
RECT
 10
36.4002
 20
44.6026
 30
0.0000
 41
0.7032
 42
1.7032
 43
1.0000
 50
45.0000
  0
INSERT
  8
29
  2
RECT
 10
35.8345
 20
44.0369
 30
0.0000
 41
0.7032
 42
1.7032
 43
1.0000
 50
45.0000
  0
INSERT
  8
29
  2
RECT
 10
35.2688
 20
43.4712
 30
0.0000
 41
0.7032
 42
1.7032
 43
1.0000
 50
45.0000
  0
INSERT
  8
29
  2
RECT
 10
34.7031
 20
42.9055
 30
0.0000
 41
0.7032
 42
1.7032
 43
1.0000
 50
45.0000
  0
INSERT
  8
29
  2
RECT
 10
34.1374
 20
42.3398
 30
0.0000
 41
0.7032
 42
1.7032
 43
1.0000
 50
45.0000
  0
INSERT
  8
29
  2
RECT
 10
33.5717
 20
41.7742
 30
0.0000
 41
0.7032
 42
1.7032
 43
1.0000
 50
45.0000
  0
INSERT
  8
29
  2
RECT
 10
33.0060
 20
41.2085
 30
0.0000
 41
0.7032
 42
1.7032
 43
1.0000
 50
45.0000
  0
INSERT
  8
29
  2
RECT
 10
32.4404
 20
40.6428
 30
0.0000
 41
0.7032
 42
1.7032
 43
1.0000
 50
45.0000
  0
INSERT
  8
29
  2
ROUNDV
 10
46.9900
 20
4.4450
 30
0.0000
 41
3.7032
 42
3.7032
 43
1.0000
 50
0.0000
  0
INSERT
  8
29
  2
ROUNDV
 10
33.6550
 20
62.8650
 30
0.0000
 41
3.7032
 42
3.7032
 43
1.0000
 50
0.0000
  0
INSERT
  8
29
  2
ROUNDV
 10
13.9700
 20
50.1650
 30
0.0000
 41
3.7032
 42
3.7032
 43
1.0000
 50
0.0000
  0
INSERT
  8
29
  2
ROUNDV
 10
66.6750
 20
50.1650
 30
0.0000
 41
3.7032
 42
3.7032
 43
1.0000
 50
0.0000
  0
INSERT
  8
29
  2
ROUNDV
 10
4.4450
 20
40.6400
 30
0.0000
 41
3.7032
 42
3.7032
 43
1.0000
 50
0.0000
  0
INSERT
  8
29
  2
ROUNDV
 10
46.9900
 20
62.8650
 30
0.0000
 41
3.7032
 42
3.7032
 43
1.0000
 50
0.0000
  0
INSERT
  8
29
  2
ROUNDV
 10
76.2000
 20
40.6400
 30
0.0000
 41
3.7032
 42
3.7032
 43
1.0000
 50
0.0000
  0
INSERT
  8
29
  2
ROUNDV
 10
33.6550
 20
4.4450
 30
0.0000
 41
3.7032
 42
3.7032
 43
1.0000
 50
0.0000
  0
ENDSEC
  0
EOF
