<?xml version="1.0" encoding="utf-8"?>
<!-- Generator: Adobe Illustrator 14.0.0, SVG Export Plug-In . SVG Version: 6.00 Build 43363)  -->
<!DOCTYPE svg PUBLIC "-//W3C//DTD SVG 1.1//EN" "http://www.w3.org/Graphics/SVG/1.1/DTD/svg11.dtd">
<svg version="1.1" xmlns="http://www.w3.org/2000/svg" xmlns:xlink="http://www.w3.org/1999/xlink" x="0px" y="0px"
	 width="595.28px" height="841.89px" viewBox="0 0 595.28 841.89" enable-background="new 0 0 595.28 841.89" xml:space="preserve">
<g id="Layer_1">
	<path fill-rule="evenodd" clip-rule="evenodd" fill="none" stroke="#F7931E" d="M277.645,463.963
		c0.296,0.055,0.347,0.29,0.498,0.498c3.353,4.609,14.686,2.743,23.174,2.743c25.838,0,48.064,0,74.549,0
		c6.351,0,10.989-0.882,13.215,2.742c1.441,2.349,0.497,11.978,0.497,17.214c0,9.821,0,20.681,0,31.167
		c0,5.613,1.082,12.252-0.996,14.71c-2.784,3.292-11.974,1.994-18.699,1.994c-42.765,0-82.938,0-125.661,0
		c-7.078,0-15.424,0.857-20.195-0.747c-4.25-1.43-9.224-6.346-10.722-10.972c-2.21-6.824-0.747-20.935-0.747-29.42
		c0-20.21,0-38.994,0-60.088c0-9.769-1.102-22.124,1.994-27.925c1.746-3.273,4.978-6.187,9.724-6.731c6.5-0.746,13.623,0,21.691,0
		c6.995,0,19.038-1.181,24.194,0.499c7.642,2.488,7.484,9.608,7.484,19.697C277.645,435.501,277.645,447.871,277.645,463.963z"/>
	<path fill-rule="evenodd" clip-rule="evenodd" fill="none" stroke="#009245" d="M229.791,427.13
		c6.7,0.654,12.146-4.603,11.52-11.519c-0.502-5.533-5.717-10.041-12-9.119C217.699,408.197,217.447,425.927,229.791,427.13z
		 M258.589,438.89c0.505,2.803,9.512,3.404,9.358-0.721c-0.1-2.715-4.415-3.461-7.679-2.159
		C259.219,436.429,258.199,436.728,258.589,438.89z M258.589,446.089c0.505,2.803,9.512,3.404,9.358-0.72
		c-0.1-2.716-4.415-3.462-7.679-2.16C259.219,443.628,258.199,443.927,258.589,446.089z M229.791,477.526
		c6.7,0.653,12.146-4.604,11.52-11.52c-0.502-5.533-5.717-10.041-12-9.119C217.699,458.593,217.447,476.322,229.791,477.526z
		 M366.58,478.486c0.505,2.803,9.511,3.404,9.358-0.72c-0.102-2.717-4.415-3.462-7.679-2.16
		C367.209,476.025,366.19,476.324,366.58,478.486z M366.58,485.686c0.505,2.803,9.511,3.404,9.358-0.72
		c-0.102-2.717-4.415-3.462-7.679-2.16C367.209,483.225,366.19,483.523,366.58,485.686z M248.51,487.125c1.039,0,2.08,0,3.119,0
		c0-1.359,0-2.72,0-4.079c-1.039,0-2.08,0-3.119,0C248.51,484.405,248.51,485.766,248.51,487.125z M253.549,487.125
		c1.04,0,2.08,0,3.12,0c0-1.359,0-2.72,0-4.079c-1.04,0-2.08,0-3.12,0C253.549,484.405,253.549,485.766,253.549,487.125z
		 M265.068,486.886c1.199,0,2.399,0,3.6,0c0-1.2,0-2.4,0-3.6c-1.2,0-2.4,0-3.6,0C265.068,484.485,265.068,485.686,265.068,486.886z
		 M346.422,491.445c1.52,0,3.039,0,4.559,0c0-0.721,0-1.44,0-2.16c-1.52,0-3.039,0-4.559,0
		C346.422,490.005,346.422,490.725,346.422,491.445z M366.58,492.885c0.505,2.804,9.511,3.404,9.358-0.72
		c-0.102-2.716-4.415-3.461-7.679-2.16C367.209,490.424,366.19,490.724,366.58,492.885z M326.982,495.045c1.521,0,3.04,0,4.561,0
		c0-0.72,0-1.44,0-2.16c-1.521,0-3.04,0-4.561,0C326.982,493.604,326.982,494.325,326.982,495.045z M346.422,495.045
		c1.52,0,3.039,0,4.559,0c0-0.72,0-1.44,0-2.16c-1.52,0-3.039,0-4.559,0C346.422,493.604,346.422,494.325,346.422,495.045z
		 M326.982,498.645c1.521,0,3.04,0,4.561,0c0-0.72,0-1.44,0-2.16c-1.521,0-3.04,0-4.561,0
		C326.982,497.204,326.982,497.925,326.982,498.645z M346.422,498.645c1.52,0,3.039,0,4.559,0c0-0.72,0-1.44,0-2.16
		c-1.52,0-3.039,0-4.559,0C346.422,497.204,346.422,497.925,346.422,498.645z M366.58,500.084c0.505,2.804,9.511,3.404,9.358-0.72
		c-0.102-2.716-4.415-3.461-7.679-2.16C367.209,497.623,366.19,497.923,366.58,500.084z M248.51,501.524c1.039,0,2.08,0,3.119,0
		c0-1.36,0-2.72,0-4.08c-1.039,0-2.08,0-3.119,0C248.51,498.805,248.51,500.164,248.51,501.524z M253.549,501.524
		c1.04,0,2.08,0,3.12,0c0-1.36,0-2.72,0-4.08c-1.04,0-2.08,0-3.12,0C253.549,498.805,253.549,500.164,253.549,501.524z
		 M265.068,501.284c1.199,0,2.399,0,3.6,0c0-1.2,0-2.399,0-3.6c-1.2,0-2.4,0-3.6,0C265.068,498.885,265.068,500.084,265.068,501.284
		z M326.982,502.244c1.521,0,3.04,0,4.561,0c0-0.72,0-1.439,0-2.16c-1.521,0-3.04,0-4.561,0
		C326.982,500.805,326.982,501.524,326.982,502.244z M346.422,502.244c1.52,0,3.039,0,4.559,0c0-0.72,0-1.439,0-2.16
		c-1.52,0-3.039,0-4.559,0C346.422,500.805,346.422,501.524,346.422,502.244z M366.58,507.283c0.505,2.804,9.511,3.404,9.358-0.72
		c-0.102-2.716-4.415-3.461-7.679-2.159C367.209,504.822,366.19,505.122,366.58,507.283z M229.791,527.922
		c6.706,0.654,12.146-4.606,11.52-11.519c-0.502-5.534-5.717-10.042-12-9.12C217.7,508.988,217.445,526.718,229.791,527.922z
		 M286.187,517.843c1.52,0,3.04,0,4.56,0c0-2.64,0-5.279,0-7.919c-1.52,0-3.04,0-4.56,0
		C286.187,512.563,286.187,515.203,286.187,517.843z M311.385,517.843c1.52,0,3.039,0,4.559,0c0-2.64,0-5.279,0-7.919
		c-1.52,0-3.039,0-4.559,0C311.385,512.563,311.385,515.203,311.385,517.843z M366.58,514.483c0.505,2.803,9.511,3.403,9.358-0.721
		c-0.102-2.716-4.415-3.461-7.679-2.159C367.209,512.022,366.19,512.321,366.58,514.483z"/>
</g>
<g id="Layer_2">
	<path fill-rule="evenodd" clip-rule="evenodd" fill="none" stroke="#000000" d="M274.668,466.968
		c0.285,0.053,0.334,0.279,0.479,0.479c3.228,4.437,17.987,2.64,26.157,2.64c24.869,0,46.263,0,71.754,0
		c6.112,0,10.577-0.849,12.72,2.64c1.387,2.261,0.479,8.639,0.479,13.679c0,9.453,0,19.905,0,29.998
		c0,5.403,1.041,11.793-0.959,14.158c-2.68,3.169-11.524,1.92-17.998,1.92c-41.161,0-79.828,0-120.95,0
		c-6.812,0-14.846,0.825-19.438-0.72c-4.091-1.376-8.878-6.107-10.32-10.56c-2.127-6.568-0.719-20.15-0.719-28.317
		c0-19.452,0-37.532,0-57.835c0-9.402-1.061-21.294,1.919-26.878c1.681-3.15,4.791-5.955,9.359-6.479c6.256-0.718,13.112,0,20.878,0
		c6.732,0,15.436-1.136,20.398,0.48c7.355,2.395,6.24,9.248,6.24,18.958C274.668,436.683,274.668,451.479,274.668,466.968z"/>
</g>
</svg>
